<svg xmlns="http://www.w3.org/2000/svg" xmlns:xlink="http://www.w3.org/1999/xlink" xmlns:fi="http://pattern.flaticon.com/" x="0" y="0" width="700" height="350" viewBox="0 0 700 350"><rect x="0px" y="0px" width="100%" height="100%" opacity="0" fill="#ffffff"/><defs><g transform="matrix(0.1171875 0 0 0.1171875 -28 263)" id="L1_0"><path d="M496,424H436a28.031,28.031,0,0,0,28-28v-8a28.031,28.031,0,0,0-28-28H416.55L394.77,259.74A48.215,48.215,0,0,0,346.96,216H304v-8a8.074,8.074,0,0,0-.49-2.75A59.858,59.858,0,0,0,318.79,176H320a24.032,24.032,0,0,0,24-24V100a84.092,84.092,0,0,0-84-84h-8a84.092,84.092,0,0,0-84,84v52a24.032,24.032,0,0,0,24,24h1.21a59.858,59.858,0,0,0,15.28,29.25A8.074,8.074,0,0,0,208,208v8H165.04a48.215,48.215,0,0,0-47.81,43.74L98.93,344H92a27.525,27.525,0,0,0-6.65.81L63.16,300.42a8.005,8.005,0,1,0-14.32,7.16l22.68,45.35A27.918,27.918,0,0,0,64,372v24a28.031,28.031,0,0,0,28,28H16a8,8,0,0,0-8,8v32a8,8,0,0,0,8,8h8v16a8,8,0,0,0,8,8H480a8,8,0,0,0,8-8V472h8a8,8,0,0,0,8-8V432A8,8,0,0,0,496,424Zm-84-48h24a12.01,12.01,0,0,1,12,12v8a12.01,12.01,0,0,1-12,12H412a12.01,12.01,0,0,1-12-12v-8A12.01,12.01,0,0,1,412,376ZM328,152a8.011,8.011,0,0,1-8,8V128h8Zm-136,8a8.011,8.011,0,0,1-8-8V128h8Zm-8-48V100a68.071,68.071,0,0,1,68-68h8a68.071,68.071,0,0,1,68,68v12h-8v-4c0-1.53-.06-3.06-.17-4.55a8,8,0,0,0-10.94-6.82C270.77,111.81,200.7,112,200,112Zm24,52V127.88c18.1-.45,62.86-2.58,96-12.63V164a44.052,44.052,0,0,1-44,44h-8A44.052,44.052,0,0,1,208,164Zm80,53.04V224c0,13.23-14.35,24-32,24s-32-10.77-32-24v-6.96A59.553,59.553,0,0,0,252,224h8A59.553,59.553,0,0,0,288,217.04ZM132.98,262.63a7.954,7.954,0,0,0,.16-1.09A32.138,32.138,0,0,1,165.04,232h43.93c4.46,18.24,23.85,32,47.03,32s42.57-13.76,47.03-32h43.93a32.138,32.138,0,0,1,31.9,29.54,7.954,7.954,0,0,0,.16,1.09l21.68,99.76A28.035,28.035,0,0,0,384,388v8a28.031,28.031,0,0,0,28,28H376V300a28.031,28.031,0,0,0-28-28H164a28.031,28.031,0,0,0-28,28V424H100a28.031,28.031,0,0,0,28-28V372a27.987,27.987,0,0,0-13.57-23.98ZM360,300V424H152V300a12.01,12.01,0,0,1,12-12H348A12.01,12.01,0,0,1,360,300ZM80,396V372a12.01,12.01,0,0,1,12-12h8a12.01,12.01,0,0,1,12,12v24a12.01,12.01,0,0,1-12,12H92A12.01,12.01,0,0,1,80,396Zm392,84H40v-8H472Zm16-24H24V440H488Z"/><path d="M256,336a32,32,0,1,0,32,32A32.036,32.036,0,0,0,256,336Zm0,48a16,16,0,1,1,16-16A16.019,16.019,0,0,1,256,384Z"/><circle cx="232" cy="144" r="8"/><circle cx="280" cy="144" r="8"/><path d="M248,192h16a8,8,0,0,0,0-16H248a8,8,0,0,0,0,16Z"/></g><path d="m378.239 60c-25.121 0-45.559 20.438-45.559 45.559v49.847c-4.857-1.771-10.097-2.739-15.56-2.739-8.281 0-16.046 2.232-22.744 6.109-1.756-2.732-3.808-5.301-6.159-7.652-8.605-8.605-20.046-13.344-32.216-13.344-5.463 0-10.703.968-15.561 2.739v-94.96c.001-25.121-20.437-45.559-45.559-45.559-25.121 0-45.559 20.438-45.559 45.559l-.001 145.301-23.653.002c-20.659.002-37.467 16.812-37.467 37.47v60.038c-.001 51.691 22.175 99.114 61.117 131.293v92.337h213.362v-92.345c17.678-14.641 32.389-32.926 42.806-53.274 11.979-23.4 18.311-49.684 18.31-76.009l.003-184.812c-.001-25.122-20.438-45.56-45.56-45.56zm15.556 230.372c.002 43.5-20.099 83.613-55.148 110.051l-5.967 4.501v77.076h-153.361v-77.074l-5.967-4.501c-35.05-26.438-55.151-67.28-55.15-112.054v-60.038c0-4.119 3.352-7.47 7.471-7.47l23.648-.002.001 53.19h30l.001-228.491c0-8.579 6.979-15.559 15.559-15.559s15.56 6.98 15.56 15.559v182.774h30v-44.994c0-8.58 6.98-15.56 15.561-15.56 4.156 0 8.063 1.619 11.003 4.558 2.938 2.938 4.557 6.846 4.557 11.002l-.001 44.994h.002 29.998.002v-30.107c0-8.58 6.979-15.56 15.56-15.56 8.579 0 15.559 6.98 15.559 15.56v30.107h30v-122.775c0-8.579 6.979-15.559 15.559-15.559s15.56 6.98 15.56 15.56z" transform="matrix(0.07711883986945725 -0.009639854797169669 0.009639854797169669 0.07711883986945725 40.30245179250248 80.6940699955862)" id="L1_1"/><g transform="matrix(0.10669877316411323 -0.05615725023734345 0.05615725023734345 0.10669877316411323 211.09898095957908 158.9376767364121)" id="L1_3"><path d="m230.058594 207c-27.019532 0-49 21.980469-49 49s21.980468 49 49 49c27.019531 0 49-21.980469 49-49s-21.980469-49-49-49zm0 68c-10.476563 0-19-8.523438-19-19s8.523437-19 19-19c10.476562 0 19 8.523438 19 19s-8.523438 19-19 19zm0 0"/><path d="m411.949219 256c4.480469-5.09375 8.699219-10.203125 12.636719-15.308594 34.011718-44.117187 43.660156-84.136718 27.175781-112.691406-16.488281-28.554688-55.972657-40.207031-111.179688-32.8125-6.394531.855469-12.925781 1.957031-19.578125 3.289062-2.171875-6.425781-4.484375-12.632812-6.941406-18.597656-21.199219-51.511718-51.03125-79.878906-84.003906-79.878906s-62.808594 28.367188-84.003906 79.878906c-2.457032 5.964844-4.769532 12.171875-6.941407 18.597656-6.652343-1.332031-13.1875-2.433593-19.578125-3.289062-55.207031-7.394531-94.691406 4.257812-111.179687 32.8125-16.484375 28.554688-6.835938 68.574219 27.175781 112.691406 3.9375 5.105469 8.15625 10.214844 12.632812 15.308594-4.476562 5.09375-8.695312 10.203125-12.632812 15.308594-34.011719 44.117187-43.660156 84.136718-27.175781 112.691406 13.25 22.949219 41.355469 34.980469 80.539062 34.980469 9.570313 0 19.804688-.71875 30.640625-2.167969 6.390625-.855469 12.925782-1.957031 19.574219-3.289062 2.171875 6.425781 4.488281 12.632812 6.941406 18.597656 21.199219 51.511718 51.035157 79.878906 84.007813 79.878906s62.804687-28.367188 84.003906-79.878906c2.453125-5.964844 4.769531-12.171875 6.941406-18.597656 6.652344 1.332031 13.183594 2.433593 19.574219 3.289062 10.839844 1.453125 21.070313 2.171875 30.640625 2.167969 39.183594 0 67.292969-12.03125 80.539062-34.980469 16.488282-28.554688 6.835938-68.574219-27.171874-112.6875-3.9375-5.109375-8.15625-10.21875-12.636719-15.3125zm-67.386719-131.078125c9.746094-1.304687 18.824219-1.945313 27.148438-1.945313 27.339843 0 46.507812 6.929688 54.070312 20.023438 10.957031 18.976562-1.753906 53.210938-34.621094 91.257812-14.964844-14.484374-31.894531-28.667968-50.351562-42.199218-2.488282-22.734375-6.304688-44.472656-11.359375-64.664063 5.125-.980469 10.171875-1.808593 15.113281-2.472656zm-72.414062 203.984375c-13.988282 8.078125-28.078126 15.441406-42.089844 22.035156-14.015625-6.59375-28.105469-13.957031-42.09375-22.035156-14.269532-8.238281-27.664063-16.757812-40.144532-25.425781-1.265624-15.144531-1.949218-31.003907-1.949218-47.480469s.683594-32.335938 1.949218-47.480469c12.480469-8.667969 25.875-17.1875 40.144532-25.425781 13.988281-8.078125 28.078125-15.441406 42.09375-22.035156 14.015625 6.59375 28.101562 13.957031 42.089844 22.035156 14.273437 8.238281 27.664062 16.757812 40.148437 25.425781 1.265625 15.144531 1.945313 31.003907 1.945313 47.480469s-.679688 32.335938-1.945313 47.480469c-12.484375 8.667969-25.875 17.1875-40.148437 25.425781zm35.367187 13.683594c-2.015625 12.359375-4.441406 24.066406-7.203125 35.054687-11.089844-3.152343-22.445312-6.929687-33.964844-11.285156 6.953125-3.660156 13.890625-7.484375 20.800782-11.472656 6.921874-3.996094 13.714843-8.101563 20.367187-12.296875zm-113.746094 23.769531c-11.519531 4.359375-22.875 8.132813-33.964843 11.285156-2.761719-10.988281-5.1875-22.695312-7.203126-35.054687 6.652344 4.199218 13.445313 8.304687 20.363282 12.296875 6.910156 3.988281 13.851562 7.8125 20.804687 11.472656zm-77.429687-86.574219c-9.703125-7.933594-18.636719-15.894531-26.777344-23.785156 8.140625-7.890625 17.074219-15.851562 26.777344-23.785156-.308594 7.859375-.46875 15.792968-.46875 23.785156s.160156 15.925781.46875 23.785156zm36.261718-110.375c2.015626-12.359375 4.441407-24.066406 7.203126-35.054687 11.089843 3.152343 22.445312 6.929687 33.964843 11.285156-6.953125 3.660156-13.894531 7.484375-20.804687 11.472656-6.917969 3.996094-13.710938 8.101563-20.363282 12.296875zm113.746094-23.769531c11.519532-4.359375 22.875-8.132813 33.964844-11.285156 2.761719 10.988281 5.183594 22.695312 7.203125 35.054687-6.652344-4.199218-13.445313-8.304687-20.363281-12.296875-6.910156-3.988281-13.851563-7.8125-20.804688-11.472656zm77.429688 86.574219c9.703125 7.933594 18.636718 15.894531 26.777344 23.785156-8.140626 7.890625-17.074219 15.851562-26.777344 23.785156.304687-7.859375.464844-15.792968.464844-23.785156s-.160157-15.925781-.464844-23.785156zm-113.71875-202.214844c21.914062 0 45.203125 28.125 61.71875 75.609375-20.023438 5.722656-40.773438 13.289063-61.71875 22.503906-20.949219-9.214843-41.695313-16.78125-61.722656-22.503906 16.515624-47.484375 39.808593-75.609375 61.722656-75.609375zm-195.722656 113c7.5625-13.097656 26.722656-20.023438 54.070312-20.023438 8.324219 0 17.402344.640626 27.144531 1.945313 4.945313.664063 9.992188 1.496094 15.117188 2.472656-5.054688 20.191407-8.871094 41.929688-11.363281 64.664063-18.453126 13.53125-35.382813 27.714844-50.347657 42.199218-32.867187-38.046874-45.578125-72.277343-34.621093-91.257812zm81.214843 244.078125c-41.753906 5.589844-71.351562-.996094-81.214843-18.078125-10.957032-18.980469 1.753906-53.210938 34.621093-91.257812 14.964844 14.480468 31.894531 28.667968 50.347657 42.199218 2.492187 22.734375 6.308593 44.472656 11.363281 64.664063-5.125.980469-10.171875 1.808593-15.117188 2.472656zm114.507813 94.921875c-21.914063 0-45.207032-28.125-61.722656-75.609375 20.027343-5.722656 40.773437-13.289063 61.722656-22.503906 20.945312 9.214843 41.695312 16.78125 61.71875 22.503906-16.515625 47.484375-39.804688 75.609375-61.71875 75.609375zm195.722656-113c-9.863281 17.082031-39.46875 23.667969-81.21875 18.078125-4.941406-.664063-9.988281-1.492187-15.113281-2.472656 5.054687-20.191407 8.871093-41.929688 11.359375-64.664063 18.457031-13.53125 35.386718-27.714844 50.351562-42.199218 32.867188 38.046874 45.578125 72.277343 34.621094 91.257812zm0 0"/></g><g transform="matrix(0.11718818545341492 0 0 0.11718818545341492 93 262.99999914168814)" id="L1_6"><path d="M506.76,242.828l-118.4-125.44c-7.277-7.718-19.424-8.07-27.142-0.787c-7.706,7.277-8.064,19.43-0.781,27.142    l105.965,112.256L360.437,368.268c-7.283,7.712-6.925,19.859,0.781,27.142c3.712,3.501,8.454,5.235,13.178,5.235    c5.101,0,10.195-2.022,13.965-6.01l118.4-125.446C513.742,261.785,513.742,250.226,506.76,242.828z"/><path d="M151.566,368.262L45.608,255.999l105.958-112.262c7.277-7.712,6.925-19.866-0.787-27.142    c-7.706-7.277-19.866-6.925-27.142,0.787l-118.4,125.44c-6.982,7.398-6.982,18.963,0,26.362L123.643,394.63    c3.776,4,8.864,6.016,13.965,6.016c4.723,0,9.466-1.741,13.171-5.242C158.498,388.127,158.843,375.974,151.566,368.262z"/><path d="M287.061,52.697c-10.477-1.587-20.282,5.606-21.882,16.083l-56.32,368.64c-1.6,10.483,5.6,20.282,16.083,21.882    c0.986,0.147,1.958,0.218,2.925,0.218c9.325,0,17.504-6.803,18.957-16.301l56.32-368.64    C304.744,64.095,297.544,54.297,287.061,52.697z"/></g><g transform="matrix(0.1171875 0 0 0.1171875 214 250)" id="L1_10"><path d="M503.467,0H8.533C3.814,0,0,3.823,0,8.533v494.933C0,508.177,3.814,512,8.533,512h494.933     c4.719,0,8.533-3.823,8.533-8.533V8.533C512,3.823,508.186,0,503.467,0z M494.933,494.933H17.067V17.067h477.867V494.933z"/><path d="M392.533,452.267c-32.93,0-59.733-26.795-59.733-59.733c0-4.71-3.814-8.533-8.533-8.533     c-4.719,0-8.533,3.823-8.533,8.533c0,42.342,34.449,76.8,76.8,76.8c42.351,0,76.8-34.458,76.8-76.8     c0-42.342-34.449-76.8-76.8-76.8c-32.93,0-59.733-26.795-59.733-59.733s26.803-59.733,59.733-59.733     c32.93,0,59.733,26.795,59.733,59.733c0,4.71,3.814,8.533,8.533,8.533c4.719,0,8.533-3.823,8.533-8.533     c0-42.342-34.449-76.8-76.8-76.8c-42.351,0-76.8,34.458-76.8,76.8s34.449,76.8,76.8,76.8c32.93,0,59.733,26.795,59.733,59.733     C452.267,425.472,425.464,452.267,392.533,452.267z"/><path d="M213.333,469.333c42.351,0,76.8-34.458,76.8-76.8v-204.8c0-4.71-3.814-8.533-8.533-8.533     c-4.719,0-8.533,3.823-8.533,8.533v204.8c0,32.939-26.803,59.733-59.733,59.733c-32.93,0-59.733-26.795-59.733-59.733     c0-4.71-3.814-8.533-8.533-8.533s-8.533,3.823-8.533,8.533C136.533,434.876,170.982,469.333,213.333,469.333z"/></g><path d="M360.015,219.48v-23.461c0-92.637-75.366-168.003-168.004-168.003c-92.644,0-168.015,75.366-168.015,168.003v23.497  C10.477,221.275,0,232.859,0,246.864l0.127,65.339c0,14.774,11.674,26.868,26.278,27.541c4.266,9.722,13.974,16.533,25.245,16.533  h16.817c15.191,0,27.549-12.374,27.549-27.591l-0.081-96.233c0-15.341-12.616-28.301-27.55-28.301h-4.649v-7.946  c0-70.724,57.543-128.262,128.273-128.262c70.73,0,128.274,57.538,128.274,128.262v7.946h-4.381c-14.934,0-27.55,12.96-27.55,28.294  l-0.08,96.247c0,15.21,12.358,27.584,27.549,27.584h16.817c11.273,0,20.981-6.811,25.247-16.533  c14.603-0.674,26.277-12.767,26.277-27.525l0.127-65.37C384.292,232.761,373.669,221.115,360.015,219.48z M16.127,312.187  L16,246.848c0-5.138,3.368-9.499,8.011-11.005l0.074,87.35C19.471,321.671,16.127,317.321,16.127,312.187z M79.937,232.458  l0.081,96.233c0,6.388-5.181,11.584-11.549,11.584h-4.193v-88.25c0-4.418-3.582-8-8-8s-8,3.582-8,8v87.743  c-4.733-1.451-8.186-5.868-8.186-11.084l-0.081-96.233c0-5.357,3.612-10.172,8.294-11.752c0.283,4.161,3.739,7.451,7.972,7.451  c4.418,0,8-3.582,8-8h4.112C74.54,220.151,79.937,225.899,79.937,232.458z M192.011,51.943  c-79.553,0-144.273,64.716-144.273,144.262v8.239c-2.717,0.408-5.32,1.24-7.741,2.428v-10.852  c0-83.814,68.193-152.003,152.015-152.003c83.815,0,152.004,68.188,152.004,152.003v10.72c-2.422-1.154-5.02-1.954-7.729-2.332  v-8.203C336.286,116.658,271.564,51.943,192.011,51.943z M336.017,339.769v-87.743c0-4.418-3.582-8-8-8s-8,3.582-8,8v88.25h-4.193  c-6.368,0-11.549-5.196-11.549-11.577l0.08-96.247c0-6.553,5.397-12.301,11.55-12.301h4.112c0,4.418,3.582,8,8,8  c4.233,0,7.689-3.29,7.972-7.451c3.937,1.329,7.113,4.943,8.026,9.242v1.281c0,0.7,0.099,1.375,0.268,2.022l-0.08,95.448  C344.203,333.903,340.75,338.318,336.017,339.769z M368.165,312.202c0,5.121-3.343,9.469-7.957,10.99l0.073-87.35  c4.642,1.506,8.011,5.865,8.011,10.99L368.165,312.202z" transform="matrix(0.15613128244876862 0 0 0.15613128244876862 80 137.00000017153093)" id="L1_11"/><g transform="matrix(0.11720054596662521 0 0 0.11720054596662521 -20 34.000001602351404)" id="L1_14"><path d="M334.783,153.156c-1.562-1.562-4.093-1.562-5.655,0L177.145,305.138c-1.562,1.562-1.562,4.094,0,5.656    c0.781,0.781,1.805,1.172,2.828,1.172c1.023,0,2.047-0.39,2.828-1.172l151.982-151.982    C336.345,157.25,336.345,154.718,334.783,153.156z"/><path d="M318.785,233.147c-1.562-1.562-4.094-1.562-5.656,0l-55.993,55.993c-1.562,1.562-1.562,4.094,0,5.656    c0.781,0.781,1.805,1.172,2.828,1.172c1.024,0,2.046-0.391,2.827-1.172l55.994-55.994    C320.347,237.24,320.347,234.709,318.785,233.147z"/><path d="M254.792,169.154c-1.562-1.562-4.093-1.562-5.655,0l-55.994,55.994c-1.562,1.562-1.562,4.093,0,5.655    c0.781,0.781,1.805,1.172,2.828,1.172s2.047-0.391,2.828-1.172l55.993-55.993C256.354,173.247,256.354,170.716,254.792,169.154z"/><path d="M256.209,95.99h-0.078c-2.21,0-3.96,1.789-3.96,4s1.832,4,4.039,4c2.211,0,3.999-1.789,3.999-4    S258.42,95.99,256.209,95.99z"/><path d="M459.947,87.991H51.994c-6.616,0-11.999,5.382-11.999,11.999v271.969c0,2.21,1.789,3.999,4,3.999s4-1.789,4-3.999V99.99    c0-2.203,1.793-4,4-4h407.954c2.203,0,4,1.797,4,4v271.969c0,2.21,1.789,3.999,3.999,3.999c2.211,0,4-1.789,3.998-3.999V99.99    C471.946,93.373,466.563,87.991,459.947,87.991z"/><path d="M491.944,415.954H19.999c-2.211,0-4,1.788-4,3.999s1.789,3.999,4,3.999h471.946c2.211,0,3.999-1.788,3.999-3.999    S494.155,415.954,491.944,415.954z"/><path d="M507.942,383.957H299.966c-2.211,0-4,1.789-4,4v3.999h-79.99v-3.999c0-2.211-1.789-4-4-4H4c-2.211,0-4,1.789-4,4v15.998    c0,2.211,1.789,3.999,4,3.999s4-1.788,4-3.999v-11.999h199.977v4c0,2.211,1.79,3.999,4,3.999h87.99    c2.21,0,3.999-1.788,3.999-3.999v-4h199.978v11.999c0,2.211,1.789,3.999,3.999,3.999c2.211,0,4-1.788,3.999-3.999v-15.998    C511.942,385.746,510.153,383.957,507.942,383.957z"/><path d="M451.949,103.989H59.994c-2.211,0-4,1.79-4,4V355.96c0,2.211,1.789,4,4,4H451.95c2.21,0,3.999-1.789,3.998-4V107.989    C455.948,105.778,454.16,103.989,451.949,103.989z M447.951,351.961H63.994V111.989h383.957V351.961z"/><path d="M20,415.954c-6.617,0-11.999-5.383-11.999-11.999c0-2.211-1.789-4-4-4s-4,1.789-4,4c0,11.03,8.972,19.997,19.998,19.997    c2.211,0,4-1.788,4-3.999S22.21,415.954,20,415.954z"/><path d="M507.943,399.955c-2.21,0-3.999,1.789-3.999,4c0,6.616-5.382,11.999-11.999,11.999c-2.211,0-3.999,1.788-3.999,3.999    s1.788,3.999,3.999,3.999c11.03,0,19.998-8.966,19.998-19.997C511.943,401.744,510.154,399.955,507.943,399.955z"/><path d="M35.997,379.958H19.999c-2.211,0-4,1.789-4,3.999c0,2.211,1.789,4,4,4h15.998c2.211,0,3.999-1.789,3.999-4    C39.996,381.747,38.207,379.958,35.997,379.958z"/><path d="M67.993,379.958H51.995c-2.211,0-4,1.789-4,3.999c0,2.211,1.789,4,4,4h15.998c2.211,0,4-1.789,4-4    C71.993,381.747,70.204,379.958,67.993,379.958z"/><path d="M99.99,379.958H83.992c-2.211,0-4,1.789-4,3.999c0,2.211,1.79,4,4,4H99.99c2.211,0,4-1.789,4-4    C103.99,381.747,102.201,379.958,99.99,379.958z"/><path d="M131.986,379.958h-15.998c-2.211,0-4,1.789-4,3.999c0,2.211,1.79,4,4,4h15.998c2.211,0,4-1.789,4-4    C135.986,381.747,134.196,379.958,131.986,379.958z"/><path d="M163.983,379.958h-15.998c-2.211,0-4,1.789-4,3.999c0,2.211,1.789,4,4,4h15.998c2.21,0,3.999-1.789,3.999-4    C167.982,381.747,166.193,379.958,163.983,379.958z"/><path d="M195.979,379.958h-15.998c-2.211,0-4,1.789-4,3.999c0,2.211,1.789,4,4,4h15.998c2.211,0,3.999-1.789,4-4    C199.979,381.747,198.19,379.958,195.979,379.958z"/><path d="M331.963,379.958h-15.998c-2.211,0-3.999,1.789-3.999,3.999c0,2.211,1.788,4,3.999,4h15.998c2.211,0,3.999-1.789,3.999-4    C335.962,381.747,334.174,379.958,331.963,379.958z"/><path d="M363.959,379.958h-15.998c-2.21,0-3.999,1.789-3.999,3.999c0,2.211,1.789,4,3.999,4h15.998c2.211,0,4-1.789,4-4    C367.959,381.747,366.17,379.958,363.959,379.958z"/><path d="M395.956,379.958h-15.998c-2.211,0-4,1.789-4,3.999c0,2.211,1.789,4,4,4h15.998c2.21,0,3.999-1.789,3.999-4    C399.955,381.747,398.166,379.958,395.956,379.958z"/><path d="M427.952,379.958h-15.998c-2.211,0-4,1.789-4,3.999c0,2.211,1.789,4,4,4h15.998c2.211,0,4-1.789,4-4    C431.952,381.747,430.163,379.958,427.952,379.958z"/><path d="M459.949,379.958h-15.998c-2.211,0-4,1.789-4,3.999c0,2.211,1.789,4,4,4h15.998c2.211,0,4-1.789,4-4    C463.949,381.747,462.16,379.958,459.949,379.958z"/><path d="M491.945,379.958h-15.998c-2.211,0-3.999,1.789-3.999,3.999c0,2.211,1.788,4,3.999,4h15.998c2.211,0,4-1.789,4-4    C495.945,381.747,494.156,379.958,491.945,379.958z"/></g><g transform="matrix(0.1171875 0 0 0.1171875 164 76)" id="L1_15"><path d="M462.367,86.204H49.633c-15.845,0-28.735,12.89-28.735,28.735v250.776h15.674V114.939c0-7.202,5.859-13.061,13.061-13.061    h412.735c7.202,0,13.061,5.859,13.061,13.061v250.776h15.673V114.939C491.102,99.094,478.212,86.204,462.367,86.204z"/><path d="M441.469,122.776H70.531c-10.082,0-18.286,8.203-18.286,18.286v216.816h407.51V141.061    C459.755,130.979,451.552,122.776,441.469,122.776z M444.082,342.204H67.918V141.061c0-1.44,1.172-2.612,2.612-2.612h370.939    c1.44,0,2.612,1.172,2.612,2.612V342.204z"/><path d="M0,378.776v47.02h512v-47.02H0z M496.327,410.122H15.673v-15.673H197.66l6.617,9.927h103.445l6.617-9.927h181.987V410.122    z"/><circle cx="256" cy="112" r="5"/></g><path d="M409.132,114.573c-19.608-33.596-46.205-60.194-79.798-79.8C295.736,15.166,259.057,5.365,219.271,5.365   c-39.781,0-76.472,9.804-110.063,29.408c-33.596,19.605-60.192,46.204-79.8,79.8C9.803,148.168,0,184.854,0,224.63   c0,47.78,13.94,90.745,41.827,128.906c27.884,38.164,63.906,64.572,108.063,79.227c5.14,0.954,8.945,0.283,11.419-1.996   c2.475-2.282,3.711-5.14,3.711-8.562c0-0.571-0.049-5.708-0.144-15.417c-0.098-9.709-0.144-18.179-0.144-25.406l-6.567,1.136   c-4.187,0.767-9.469,1.092-15.846,1c-6.374-0.089-12.991-0.757-19.842-1.999c-6.854-1.231-13.229-4.086-19.13-8.559   c-5.898-4.473-10.085-10.328-12.56-17.556l-2.855-6.57c-1.903-4.374-4.899-9.233-8.992-14.559   c-4.093-5.331-8.232-8.945-12.419-10.848l-1.999-1.431c-1.332-0.951-2.568-2.098-3.711-3.429c-1.142-1.331-1.997-2.663-2.568-3.997   c-0.572-1.335-0.098-2.43,1.427-3.289c1.525-0.859,4.281-1.276,8.28-1.276l5.708,0.853c3.807,0.763,8.516,3.042,14.133,6.851   c5.614,3.806,10.229,8.754,13.846,14.842c4.38,7.806,9.657,13.754,15.846,17.847c6.184,4.093,12.419,6.136,18.699,6.136   c6.28,0,11.704-0.476,16.274-1.423c4.565-0.952,8.848-2.383,12.847-4.285c1.713-12.758,6.377-22.559,13.988-29.41   c-10.848-1.14-20.601-2.857-29.264-5.14c-8.658-2.286-17.605-5.996-26.835-11.14c-9.235-5.137-16.896-11.516-22.985-19.126   c-6.09-7.614-11.088-17.61-14.987-29.979c-3.901-12.374-5.852-26.648-5.852-42.826c0-23.035,7.52-42.637,22.557-58.817   c-7.044-17.318-6.379-36.732,1.997-58.24c5.52-1.715,13.706-0.428,24.554,3.853c10.85,4.283,18.794,7.952,23.84,10.994   c5.046,3.041,9.089,5.618,12.135,7.708c17.705-4.947,35.976-7.421,54.818-7.421s37.117,2.474,54.823,7.421l10.849-6.849   c7.419-4.57,16.18-8.758,26.262-12.565c10.088-3.805,17.802-4.853,23.134-3.138c8.562,21.509,9.325,40.922,2.279,58.24   c15.036,16.18,22.559,35.787,22.559,58.817c0,16.178-1.958,30.497-5.853,42.966c-3.9,12.471-8.941,22.457-15.125,29.979   c-6.191,7.521-13.901,13.85-23.131,18.986c-9.232,5.14-18.182,8.85-26.84,11.136c-8.662,2.286-18.415,4.004-29.263,5.146   c9.894,8.562,14.842,22.077,14.842,40.539v60.237c0,3.422,1.19,6.279,3.572,8.562c2.379,2.279,6.136,2.95,11.276,1.995   c44.163-14.653,80.185-41.062,108.068-79.226c27.88-38.161,41.825-81.126,41.825-128.906   C438.536,184.851,428.728,148.168,409.132,114.573z" transform="matrix(0.10451668500900269 0 0 0.10451668500900269 102.07329107820988 63.090764091079905)" id="L1_20"/><g transform="matrix(0.1171875 0 0 0.1171875 313.99999879837037 116)" id="L1_23"><path d="M475.803,5.184C472.763,1.888,468.507,0,463.995,0h-416c-4.48,0-8.768,1.888-11.808,5.184    c-3.008,3.328-4.512,7.744-4.128,12.192l37.888,432c0.576,6.656,5.184,12.192,11.584,14.016l170.112,48    c1.44,0.416,2.88,0.608,4.352,0.608c1.472,0,2.944-0.192,4.352-0.576l170.048-47.968c6.4-1.824,10.976-7.392,11.584-14.016    l37.952-432.032C480.348,12.928,478.843,8.512,475.803,5.184z M411.099,435.616L255.995,479.36l-155.136-43.776L65.467,32h381.056    L411.099,435.616z"/><path d="M379.675,101.056c-3.008-3.232-7.232-5.056-11.68-5.056h-224c-8.832,0-16,7.168-16,16c0,8.832,7.168,16,16,16h206.912    l-14.176,212.224l-80.736,26.912l-80-26.656V320c0-8.832-7.168-16-16-16c-8.832,0-16,7.168-16,16v32    c0,6.88,4.416,12.992,10.944,15.2l96,32c1.632,0.512,3.36,0.8,5.056,0.8c1.728,0,3.392-0.288,5.056-0.832l96-32    c6.176-2.048,10.464-7.616,10.912-14.112l16-240C384.251,108.64,382.683,104.288,379.675,101.056z"/><path d="M359.355,224h-211.52c-8.832,0-16,7.168-16,16c0,8.832,7.168,16,16,16h211.52c8.864,0,16-7.168,16-16    C375.355,231.168,368.187,224,359.355,224z"/></g><g transform="matrix(1.1861244440078735 0 0 1.1861244440078735 172.08038222789764 183.76650667190552)" id="L1_25"><path d="m19.5 24h-15c-1.378 0-2.5-1.122-2.5-2.5v-19c0-1.378 1.122-2.5 2.5-2.5h15c1.378 0 2.5 1.122 2.5 2.5v19c0 1.378-1.122 2.5-2.5 2.5zm-15-23c-.827 0-1.5.673-1.5 1.5v19c0 .827.673 1.5 1.5 1.5h15c.827 0 1.5-.673 1.5-1.5v-19c0-.827-.673-1.5-1.5-1.5z"/><path d="m12.25 21h-1.75c-.276 0-.5-.224-.5-.5s.224-.5.5-.5h1.75c.414 0 .75-.336.75-.75s-.336-.75-.75-.75h-.5c-.965 0-1.75-.785-1.75-1.75s.785-1.75 1.75-1.75h1.75c.276 0 .5.224.5.5s-.224.5-.5.5h-1.75c-.414 0-.75.336-.75.75s.336.75.75.75h.5c.965 0 1.75.785 1.75 1.75s-.785 1.75-1.75 1.75z"/><path d="m18.5 21c-.17 0-.335-.086-.429-.243l-3-5c-.142-.237-.065-.544.171-.686.237-.143.544-.065.686.171l3 5c.142.237.065.544-.171.686-.08.049-.169.072-.257.072z"/><path d="m15.5 21c-.087 0-.176-.023-.257-.071-.237-.142-.313-.449-.171-.686l3-5c.142-.237.449-.314.686-.171.237.142.313.449.171.686l-3 5c-.094.156-.26.242-.429.242z"/><path d="m7.5 21h-2c-.276 0-.5-.224-.5-.5s.224-.5.5-.5h2c.276 0 .5-.224.5-.5v-4c0-.276.224-.5.5-.5s.5.224.5.5v4c0 .827-.673 1.5-1.5 1.5z"/></g><g transform="matrix(0.051102910190820694 0 0 0.051102910190820694 254.9176549911499 92.9176549911499)" id="L1_26"><path d="M256,149.333c-70.592,0-128,57.408-128,128s57.408,128,128,128s128-57.408,128-128S326.592,149.333,256,149.333z      M256,384c-58.816,0-106.667-47.851-106.667-106.667S197.184,170.667,256,170.667s106.667,47.851,106.667,106.667     S314.816,384,256,384z"/><path d="M458.667,85.333h-80.832l-35.883-39.189c-2.027-2.219-4.885-3.477-7.872-3.477H177.899c-2.987,0-5.845,1.259-7.851,3.477     l-35.883,39.189H53.333C23.936,85.333,0,109.269,0,138.667V416c0,29.397,23.936,53.333,53.333,53.333h405.333     C488.064,469.333,512,445.397,512,416V138.667C512,109.269,488.064,85.333,458.667,85.333z M490.667,416     c0,17.643-14.357,32-32,32H53.333c-17.643,0-32-14.357-32-32V138.667c0-17.643,14.357-32,32-32h85.525     c2.987,0,5.845-1.259,7.872-3.477L182.613,64h146.773l35.883,39.189c2.027,2.219,4.885,3.477,7.872,3.477h85.525     c17.643,0,32,14.357,32,32V416z"/></g><g transform="matrix(0.0976606085896492 0 0 0.0976606085896492 63.56145393848419 10.561453938484192)" id="L1_28"><path d="M456,240h-8V72c-0.026-22.08-17.92-39.974-40-40H72c-22.08,0.026-39.974,17.92-40,40v120h-8c-13.255,0-24,10.745-24,24    v208c0,13.255,10.745,24,24,24h304c4.418,0,8-3.582,8-8c-0.026-22.08-17.92-39.974-40-40h-24v-48h96v72c0,13.255,10.745,24,24,24    h64c13.255,0,24-10.745,24-24V264C480,250.745,469.255,240,456,240z M176,424c0,4.418-3.582,8-8,8H24c-4.418,0-8-3.582-8-8v-8h160    V424z M176,400H16V216c0-4.418,3.582-8,8-8h144c4.418,0,8,3.582,8,8V400z M296,416c10.168,0.012,19.229,6.418,22.632,16H190.528    c0.948-2.562,1.445-5.268,1.472-8v-8H296z M192,400v-48h16v48H192z M224,400v-48h32v48H224z M368,336H192v-48h176V336z M368,264v8    H192v-56c-0.027-3.796-0.966-7.53-2.736-10.888c0.12-0.112,0.28-0.144,0.392-0.264l79.2-79.2c3.07-3.178,2.982-8.243-0.196-11.312    c-3.1-2.994-8.015-2.994-11.116,0l-79.2,79.2c-0.192,0.2-0.272,0.456-0.44,0.664c-3.104-1.44-6.483-2.19-9.904-2.2H48V72    c0-13.255,10.745-24,24-24h336c13.255,0,24,10.745,24,24v168h-40C378.745,240,368,250.745,368,264z M464,424c0,4.418-3.582,8-8,8    h-64c-4.418,0-8-3.582-8-8v-8h80V424z M464,400h-80V264c0-4.418,3.582-8,8-8h64c4.418,0,8,3.582,8,8V400z"/><path d="M95.592,289.376c-3.124-3.123-8.188-3.123-11.312,0l-33.936,33.936c-3.178,3.07-3.266,8.134-0.196,11.312    c3.07,3.178,8.134,3.266,11.312,0.196c0.067-0.064,0.132-0.13,0.196-0.196l33.936-33.936    C97.02,298.213,94.15,293.508,95.592,289.376z"/><path d="M143.396,289.376c-3.1-2.994-8.015-2.994-11.116,0l-33.936,33.936c-3.178,3.069-3.266,8.134-0.196,11.312    c3.069,3.178,8.134,3.266,11.312,0.196c0.067-0.064,0.132-0.13,0.196-0.196l33.936-33.936    C146.661,297.51,146.574,292.445,143.396,289.376z"/><path d="M317.46,114.344c-3.1-2.994-8.015-2.994-11.116,0l-79.2,79.2c-3.178,3.069-3.266,8.134-0.197,11.312    c3.069,3.178,8.134,3.266,11.312,0.197c0.067-0.064,0.132-0.13,0.197-0.197l79.2-79.2    C320.726,122.478,320.638,117.413,317.46,114.344z"/><path d="M440.772,311.032c-3.1-2.995-8.016-2.995-11.116,0l-22.624,22.624c-3.178,3.07-3.266,8.134-0.196,11.312    c3.07,3.178,8.134,3.266,11.312,0.196c0.066-0.064,0.132-0.13,0.196-0.196l22.624-22.624    C444.038,319.166,443.95,314.102,440.772,311.032z"/><path d="M240.16,304h-0.08c-4.418,0.022-7.982,3.622-7.96,8.04s3.622,7.982,8.04,7.96c4.418,0,8-3.582,8-8S244.578,304,240.16,304    z"/><path d="M256,64h-32c-4.418,0-8,3.582-8,8s3.582,8,8,8h32c4.418,0,8-3.582,8-8S260.418,64,256,64z"/></g><g transform="matrix(0.1171875 0 0 0.1171875 175 -2.999998755455067)" id="L1_30"><path d="M186.904,223.42c-0.855-4.343-5.069-7.172-9.415-6.316c-5.25,1.034-10.828,1.933-16.579,2.67    c-4.391,0.563-7.495,4.58-6.932,8.971c0.519,4.046,3.969,6.998,7.942,6.998c0.34,0,0.685-0.022,1.03-0.066    c6.104-0.782,12.039-1.739,17.637-2.842C184.932,231.98,187.76,227.764,186.904,223.42z"/><path d="M186.904,172.113c-0.855-4.343-5.069-7.172-9.415-6.316c-5.25,1.034-10.828,1.933-16.579,2.67    c-4.391,0.563-7.495,4.58-6.932,8.971c0.519,4.046,3.969,6.998,7.942,6.998c0.34,0,0.685-0.022,1.03-0.066    c6.104-0.782,12.039-1.739,17.637-2.842C184.932,180.673,187.76,176.457,186.904,172.113z"/><path d="M200.145,53.128c-21.74-6.689-50.492-10.373-80.963-10.373s-59.223,3.683-80.963,10.373C20.784,58.493,0,68.373,0,84.977    v213.779c0,9.165,6.63,22.129,38.218,31.849c21.74,6.689,50.492,10.373,80.963,10.373c21.816,0,43.053-1.912,61.414-5.529    c4.343-0.856,7.171-5.071,6.315-9.415c-0.856-4.344-5.063-7.171-9.415-6.316c-17.356,3.419-37.521,5.227-58.315,5.227    c-28.916,0-55.995-3.432-76.247-9.664c-21.279-6.547-26.901-13.672-26.901-16.524v-28.918c6.767,4.08,14.775,7.18,22.185,9.46    c21.74,6.689,50.492,10.373,80.963,10.373c2.92,0,5.861-0.034,8.739-0.102c4.427-0.104,7.93-3.776,7.826-8.203    c-0.104-4.426-3.779-7.933-8.203-7.826c-2.753,0.065-5.567,0.097-8.363,0.097c-28.916,0-55.995-3.432-76.247-9.664    c-21.279-6.547-26.901-13.672-26.901-16.524v-28.918c6.767,4.08,14.775,7.18,22.185,9.46c21.74,6.689,50.492,10.373,80.963,10.373    c2.92,0,5.861-0.034,8.739-0.102c4.427-0.104,7.93-3.776,7.826-8.203c-0.104-4.426-3.779-7.922-8.203-7.826    c-2.753,0.065-5.567,0.097-8.363,0.097c-28.916,0-55.995-3.432-76.247-9.664c-21.279-6.547-26.901-13.672-26.901-16.524v-28.918    c6.767,4.08,14.775,7.18,22.185,9.46c21.74,6.689,50.492,10.373,80.963,10.373c2.92,0,5.861-0.034,8.739-0.102    c4.427-0.104,7.93-3.776,7.826-8.203c-0.104-4.426-3.779-7.946-8.203-7.826c-2.753,0.065-5.567,0.097-8.363,0.097    c-28.916,0-55.995-3.432-76.247-9.664c-21.279-6.547-26.901-13.672-26.901-16.524v-37.469c6.767,4.08,14.775,7.18,22.185,9.46    c21.74,6.689,50.492,10.372,80.963,10.372s59.223-3.683,80.963-10.372c7.409-2.28,15.418-5.379,22.185-9.46v37.469    c0,2.256-3.3,6.5-12.598,11.031c-3.981,1.939-5.634,6.738-3.695,10.718c1.388,2.85,4.242,4.506,7.213,4.506    c1.178,0,2.375-0.261,3.505-0.811c2.041-0.994,3.888-2.004,5.575-3.025v28.888c0,2.256-3.3,6.5-12.598,11.031    c-3.981,1.939-5.634,6.738-3.695,10.718c1.388,2.85,4.242,4.506,7.213,4.506c1.178,0,2.375-0.261,3.505-0.811    c2.041-0.994,3.888-2.004,5.575-3.025v28.888c0,2.256-3.3,6.5-12.598,11.031c-3.981,1.939-5.634,6.738-3.695,10.718    c1.388,2.85,4.242,4.506,7.213,4.506c1.178,0,2.375-0.261,3.505-0.811c2.04-0.994,3.888-2.004,5.575-3.025v20.337    c0,4.427,3.588,8.017,8.017,8.017c4.428,0,8.017-3.589,8.017-8.017V84.977C238.363,68.373,217.58,58.493,200.145,53.128z     M195.429,101.501c-20.252,6.232-47.332,9.664-76.247,9.664s-55.995-3.432-76.247-9.664    c-21.279-6.547-26.901-13.672-26.901-16.524S21.656,75,42.934,68.453c20.252-6.232,47.332-9.664,76.247-9.664    s55.995,3.432,76.247,9.664C216.707,75,222.33,82.125,222.33,84.977S216.707,94.954,195.429,101.501z"/><path d="M186.905,274.727c-0.855-4.343-5.07-7.172-9.415-6.316c-5.25,1.034-10.828,1.933-16.579,2.67    c-4.391,0.563-7.495,4.58-6.932,8.971c0.519,4.046,3.969,6.998,7.942,6.998c0.34,0,0.685-0.022,1.03-0.066    c6.104-0.782,12.039-1.739,17.637-2.842C184.932,283.287,187.761,279.071,186.905,274.727z"/><path d="M264.551,153.921c-4.428,0-8.017,3.589-8.017,8.017s3.588,8.017,8.017,8.017c38.015,0,68.944,30.928,68.944,68.944    c0,4.427,3.588,8.017,8.017,8.017c4.428,0,8.017-3.589,8.017-8.017C349.528,192.042,311.408,153.921,264.551,153.921z"/><path d="M170.489,436.109c-38.015,0-68.944-30.928-68.944-68.944c0-4.427-3.588-8.017-8.017-8.017s-8.017,3.589-8.017,8.017    c0,46.856,38.12,84.977,84.977,84.977c4.428,0,8.017-3.589,8.017-8.017C178.505,439.698,174.917,436.109,170.489,436.109z"/><path d="M438.577,316.45c-18.209-31.809-51.679-51.365-88.514-51.365s-70.305,19.555-88.514,51.365    c-40.755,1.583-73.423,35.233-73.423,76.368c0,42.141,34.285,76.426,76.426,76.426h171.023c42.141,0,76.426-34.285,76.426-76.426    C512,351.683,479.331,318.033,438.577,316.45z M435.574,453.211H264.551c-33.3,0-60.392-27.092-60.392-60.393    s27.092-60.392,60.385-60.392c0.143,0.002,0.283,0.016,0.423,0.026c0.377,0.026,0.754,0.05,1.135,0.06    c3.051,0.061,5.943-1.62,7.345-4.369c14.808-29.005,44.165-47.024,76.615-47.024s61.807,18.018,76.615,47.024    c1.403,2.749,4.271,4.441,7.345,4.369c0.38-0.01,0.758-0.034,1.135-0.06c0.14-0.01,0.279-0.023,0.42-0.026    c33.296,0.003,60.388,27.094,60.388,60.392C495.967,426.119,468.874,453.211,435.574,453.211z"/><path d="M408.237,332.183c-12.408-20.598-34.154-32.893-58.175-32.893c-6.595,0-13.119,0.946-19.39,2.812    c-4.245,1.262-6.66,5.726-5.398,9.971c1.262,4.245,5.73,6.66,9.97,5.397c4.786-1.425,9.772-2.146,14.817-2.146    c18.348,0,34.961,9.396,44.442,25.133c1.504,2.498,4.156,3.881,6.874,3.881c1.408,0,2.835-0.371,4.129-1.151    C409.3,340.901,410.521,335.975,408.237,332.183z"/><path d="M456.706,356.26c-3.83-2.22-8.735-0.911-10.954,2.92c-2.219,3.832-0.912,8.736,2.92,10.955    c8.074,4.674,13.09,13.367,13.09,22.683c0,4.427,3.588,8.017,8.017,8.017c4.428,0,8.017-3.589,8.017-8.017    C477.795,377.8,469.714,363.792,456.706,356.26z"/></g><g transform="matrix(0.06749475747346878 0 0 0.06749475747346878 46.72134208679199 217.721342086792)" id="L1_31"><path d="M286.117,385.614c-16.606-16.607-43.629-16.607-60.235,0c-16.607,16.607-16.607,43.629,0,60.236    c8.303,8.304,19.211,12.456,30.117,12.456s21.815-4.151,30.117-12.456C302.724,429.244,302.724,402.221,286.117,385.614z"/><path d="M150.588,310.321l30.117,30.117c41.518-41.517,109.07-41.517,150.588,0l30.117-30.117    C303.288,252.198,208.712,252.198,150.588,310.321z"/><path d="M256,160.176c-68.262,0-132.438,26.582-180.706,74.851l30.117,30.117c40.223-40.223,93.704-62.376,150.588-62.376    c56.884,0,110.365,22.153,150.588,62.376l30.117-30.117C388.438,186.758,324.262,160.176,256,160.176z"/><path d="M256,53.694c-96.704,0-187.62,37.659-256,106.039l30.117,30.117C90.453,129.515,170.674,96.287,256,96.287    s165.547,33.228,225.883,93.564L512,159.733C443.62,91.353,352.704,53.694,256,53.694z"/></g><g transform="matrix(0.03964269087244123 -0.03964269087244123 0.03964269087244123 0.03964269087244123 320.1125344079747 222.23183556971767)" id="L1_32"><path d="m482 104h-69c-5.523 0-10 4.477-10 10s4.477 10 10 10h69c5.514 0 10 4.486 10 10v143.556c-3.143-1.119-6.524-1.733-10.046-1.733s-6.902.615-10.045 1.733v-17.191c0-16.567-13.479-30.045-30.046-30.045-3.522 0-6.902.615-10.045 1.733v-6.007c0-3.522-.615-6.902-1.733-10.045h25.915c5.523 0 10-4.477 10-10v-44c0-5.523-4.477-10-10-10h-48c-5.523 0-10 4.477-10 10v34.245c-8.222 1.035-15.42 5.399-20.193 11.703.125-.63.193-1.281.193-1.948v-44c0-5.523-4.477-10-10-10h-48c-5.523 0-10 4.477-10 10v44c0 5.523 4.477 10 10 10h48c2.435 0 4.664-.872 6.399-2.318-1.711 3.774-2.672 7.957-2.672 12.363v6.007c-3.143-1.119-6.524-1.733-10.046-1.733-8.715 0-16.572 3.733-22.065 9.681h-59.616c-5.523 0-10 4.477-10 10v44c0 5.523 4.477 10 10 10h51.635v28h-151.27v-28h51.635c5.523 0 10-4.477 10-10v-44c0-5.523-4.477-10-10-10h-59.615c-5.493-5.947-13.35-9.681-22.066-9.681-3.522 0-6.902.615-10.045 1.733v-6.007c0-4.406-.961-8.589-2.672-12.363 1.734 1.446 3.964 2.318 6.399 2.318h48c5.523 0 10-4.477 10-10v-44c0-5.523-4.477-10-10-10h-48c-5.523 0-10 4.477-10 10v44c0 .667.068 1.317.193 1.948-4.772-6.304-11.971-10.667-20.193-11.703v-34.246c0-5.523-4.477-10-10-10h-48.001c-5.523 0-10 4.477-10 10v44c0 5.523 4.477 10 10 10h25.916c-1.119 3.143-1.733 6.523-1.733 10.045v6.007c-3.143-1.119-6.524-1.733-10.046-1.733-16.567 0-30.045 13.479-30.045 30.045v17.191c-3.143-1.119-6.524-1.733-10.046-1.733s-6.902.615-10.045 1.733v-143.555c0-5.514 4.486-10 10-10h293c5.523 0 10-4.477 10-10s-4.477-10-10-10h-57v-10c0-20.953-17.047-38-38-38h-42c-9.925 0-18-8.075-18-18s8.075-18 18-18h70c5.523 0 10-4.477 10-10s-4.477-10-10-10h-70c-20.953 0-38 17.047-38 38s17.047 38 38 38h42c9.925 0 18 8.075 18 18v10h-216.001c-16.542 0-30 13.458-30 30v294.796c0 22.063 8.568 42.83 24.125 58.475l21.659 21.78c1.955 1.965 4.522 2.949 7.091 2.949 2.55 0 5.101-.969 7.051-2.909 3.916-3.895 3.934-10.226.04-14.142l-21.659-21.78c-11.806-11.872-18.307-27.63-18.307-44.373v-122.928c0-5.539 4.506-10.045 10.046-10.045 5.539 0 10.045 4.506 10.045 10.045v61.714c0 5.523 4.477 10 10 10s10-4.477 10-10v-107.217c0-5.539 4.506-10.045 10.046-10.045 5.539 0 10.045 4.506 10.045 10.045v107.217c0 5.523 4.477 10 10 10s10-4.477 10-10v-141.537c0-5.539 4.506-10.045 10.046-10.045 5.539 0 10.045 4.506 10.045 10.045v141.537c0 5.523 4.477 10 10 10s10-4.477 10-10v-107.217c0-5.539 4.506-10.045 10.046-10.045 5.539 0 10.045 4.506 10.045 10.045v152.915c0 5.059 3.778 9.321 8.801 9.928 5.025.607 9.707-2.633 10.912-7.547l11.246-45.871c1.311-5.347 6.583-8.788 12.007-7.83 2.798.493 5.223 2.056 6.83 4.399 1.606 2.344 2.188 5.169 1.638 7.957l-12.021 60.963c-2.411 12.227-8.331 23.36-17.118 32.197l-27.32 27.473c-3.894 3.916-3.876 10.248.04 14.142 1.951 1.94 4.501 2.909 7.051 2.909 2.568 0 5.137-.984 7.091-2.949l27.32-27.473c11.581-11.646 19.381-26.318 22.559-42.431l12.021-60.963c1.598-8.104-.093-16.319-4.763-23.132-.739-1.078-1.543-2.091-2.396-3.052h63.477c-.853.961-1.657 1.975-2.396 3.052-4.669 6.813-6.361 15.029-4.763 23.132l12.021 60.963c3.177 16.113 10.978 30.785 22.559 42.431l27.32 27.473c1.955 1.965 4.522 2.949 7.091 2.949 2.55 0 5.101-.969 7.051-2.909 3.916-3.895 3.934-10.226.04-14.142l-27.32-27.473c-8.788-8.837-14.707-19.971-17.118-32.197l-12.021-60.963c-.55-2.788.032-5.613 1.638-7.957s4.032-3.906 6.83-4.399c5.418-.955 10.695 2.483 12.006 7.83l11.246 45.871c1.205 4.913 5.886 8.159 10.912 7.547 5.022-.606 8.801-4.869 8.801-9.928v-152.915c0-5.539 4.506-10.045 10.046-10.045 5.539 0 10.045 4.506 10.045 10.045v107.217c0 5.523 4.477 10 10 10s10-4.477 10-10v-141.537c0-5.539 4.507-10.045 10.046-10.045s10.045 4.506 10.045 10.045v141.537c0 5.523 4.477 10 10 10s10-4.477 10-10v-107.217c0-5.539 4.506-10.045 10.046-10.045 5.539 0 10.045 4.506 10.045 10.045v107.217c0 5.523 4.477 10 10 10s10-4.477 10-10v-61.714c0-5.539 4.506-10.045 10.046-10.045 5.539 0 10.045 4.506 10.045 10.045v122.928c0 16.742-6.501 32.5-18.307 44.372l-21.659 21.78c-3.894 3.916-3.876 10.248.04 14.142 1.951 1.94 4.501 2.909 7.051 2.909 2.568 0 5.137-.984 7.091-2.949l21.659-21.78c15.557-15.644 24.125-36.411 24.125-58.474v-294.796c0-16.542-13.458-30-30-30zm-124 92h-28v-24h28zm-204-24h28v24h-28zm-88 0h28v24h-28zm224 112v-24h41.635v.365 23.635zm-109.635-24h41.635v24h-41.635v-23.635zm237.635-88h28v24h-28z" id="XMLID_73_"/><path d="m232 152c-5.523 0-10 4.477-10 10v44c0 5.523 4.477 10 10 10h48c5.523 0 10-4.477 10-10v-44c0-5.523-4.477-10-10-10zm38 44h-28v-24h28z" id="XMLID_1133_"/><path d="m368 124c2.63 0 5.21-1.07 7.07-2.93s2.93-4.44 2.93-7.07-1.07-5.21-2.93-7.07-4.44-2.93-7.07-2.93-5.21 1.07-7.07 2.93-2.93 4.44-2.93 7.07 1.07 5.21 2.93 7.07 4.44 2.93 7.07 2.93z" id="XMLID_1664_"/></g><g transform="matrix(0.09107298144177521 -0.011751352382950466 0.011751352382950466 0.09107298144177521 260.67726979009194 -3.3062018382580973)" id="L1_34"><path d="M475.803,5.184C472.763,1.888,468.507,0,463.995,0h-416c-4.48,0-8.768,1.888-11.808,5.184    c-3.008,3.328-4.512,7.744-4.128,12.192l37.888,432c0.576,6.656,5.184,12.192,11.584,14.016l170.112,48    c1.44,0.416,2.88,0.608,4.352,0.608c1.472,0,2.944-0.192,4.352-0.576l170.048-47.968c6.4-1.824,10.976-7.392,11.584-14.016    l37.952-432.032C480.348,12.928,478.843,8.512,475.803,5.184z M411.099,435.616L255.995,479.36l-155.136-43.776L65.467,32h381.056    L411.099,435.616z"/><path d="M367.995,224h-208v-96h208c8.832,0,16-7.168,16-16c0-8.832-7.168-16-16-16h-224c-8.832,0-16,7.168-16,16v128    c0,8.832,7.168,16,16,16h205.568l-12,83.936l-81.568,27.2l-80-26.656V304c0-8.832-7.168-16-16-16c-8.832,0-16,7.168-16,16v48    c0,6.88,4.416,12.992,10.944,15.2l96,32c1.632,0.512,3.36,0.8,5.056,0.8c1.728,0,3.392-0.288,5.056-0.832l96-32    c5.76-1.92,9.92-6.912,10.784-12.928l16-112c0.672-4.576-0.704-9.248-3.744-12.736C377.051,226.016,372.635,224,367.995,224z"/></g></defs><g fi:class="KUsePattern"><pattern id="pattern_L1_0" width="350" height="350" patternUnits="userSpaceOnUse"><use xlink:href="#L1_0" x="-350" y="-350"/><use xlink:href="#L1_0" x="0" y="-350"/><use xlink:href="#L1_0" x="350" y="-350"/><use xlink:href="#L1_0" x="-350" y="0"/><use xlink:href="#L1_0" x="0" y="0"/><use xlink:href="#L1_0" x="350" y="0"/><use xlink:href="#L1_0" x="-350" y="350"/><use xlink:href="#L1_0" x="0" y="350"/><use xlink:href="#L1_0" x="350" y="350"/></pattern><rect x="0" y="0" width="100%" height="100%" fill="url(#pattern_L1_0)"/></g><g fi:class="KUsePattern"><pattern id="pattern_L1_1" width="350" height="350" patternUnits="userSpaceOnUse"><use xlink:href="#L1_1" x="-350" y="-350"/><use xlink:href="#L1_1" x="0" y="-350"/><use xlink:href="#L1_1" x="350" y="-350"/><use xlink:href="#L1_1" x="-350" y="0"/><use xlink:href="#L1_1" x="0" y="0"/><use xlink:href="#L1_1" x="350" y="0"/><use xlink:href="#L1_1" x="-350" y="350"/><use xlink:href="#L1_1" x="0" y="350"/><use xlink:href="#L1_1" x="350" y="350"/></pattern><rect x="0" y="0" width="100%" height="100%" fill="url(#pattern_L1_1)"/></g><g fi:class="KUsePattern"><pattern id="pattern_L1_3" width="350" height="350" patternUnits="userSpaceOnUse"><use xlink:href="#L1_3" x="-350" y="-350"/><use xlink:href="#L1_3" x="0" y="-350"/><use xlink:href="#L1_3" x="350" y="-350"/><use xlink:href="#L1_3" x="-350" y="0"/><use xlink:href="#L1_3" x="0" y="0"/><use xlink:href="#L1_3" x="350" y="0"/><use xlink:href="#L1_3" x="-350" y="350"/><use xlink:href="#L1_3" x="0" y="350"/><use xlink:href="#L1_3" x="350" y="350"/></pattern><rect x="0" y="0" width="100%" height="100%" fill="url(#pattern_L1_3)"/></g><g fi:class="KUsePattern"><pattern id="pattern_L1_6" width="350" height="350" patternUnits="userSpaceOnUse"><use xlink:href="#L1_6" x="-350" y="-350"/><use xlink:href="#L1_6" x="0" y="-350"/><use xlink:href="#L1_6" x="350" y="-350"/><use xlink:href="#L1_6" x="-350" y="0"/><use xlink:href="#L1_6" x="0" y="0"/><use xlink:href="#L1_6" x="350" y="0"/><use xlink:href="#L1_6" x="-350" y="350"/><use xlink:href="#L1_6" x="0" y="350"/><use xlink:href="#L1_6" x="350" y="350"/></pattern><rect x="0" y="0" width="100%" height="100%" fill="url(#pattern_L1_6)"/></g><g fi:class="KUsePattern"><pattern id="pattern_L1_10" width="350" height="350" patternUnits="userSpaceOnUse"><use xlink:href="#L1_10" x="-350" y="-350"/><use xlink:href="#L1_10" x="0" y="-350"/><use xlink:href="#L1_10" x="350" y="-350"/><use xlink:href="#L1_10" x="-350" y="0"/><use xlink:href="#L1_10" x="0" y="0"/><use xlink:href="#L1_10" x="350" y="0"/><use xlink:href="#L1_10" x="-350" y="350"/><use xlink:href="#L1_10" x="0" y="350"/><use xlink:href="#L1_10" x="350" y="350"/></pattern><rect x="0" y="0" width="100%" height="100%" fill="url(#pattern_L1_10)"/></g><g fi:class="KUsePattern"><pattern id="pattern_L1_11" width="350" height="350" patternUnits="userSpaceOnUse"><use xlink:href="#L1_11" x="-350" y="-350"/><use xlink:href="#L1_11" x="0" y="-350"/><use xlink:href="#L1_11" x="350" y="-350"/><use xlink:href="#L1_11" x="-350" y="0"/><use xlink:href="#L1_11" x="0" y="0"/><use xlink:href="#L1_11" x="350" y="0"/><use xlink:href="#L1_11" x="-350" y="350"/><use xlink:href="#L1_11" x="0" y="350"/><use xlink:href="#L1_11" x="350" y="350"/></pattern><rect x="0" y="0" width="100%" height="100%" fill="url(#pattern_L1_11)"/></g><g fi:class="KUsePattern"><pattern id="pattern_L1_14" width="350" height="350" patternUnits="userSpaceOnUse"><use xlink:href="#L1_14" x="-350" y="-350"/><use xlink:href="#L1_14" x="0" y="-350"/><use xlink:href="#L1_14" x="350" y="-350"/><use xlink:href="#L1_14" x="-350" y="0"/><use xlink:href="#L1_14" x="0" y="0"/><use xlink:href="#L1_14" x="350" y="0"/><use xlink:href="#L1_14" x="-350" y="350"/><use xlink:href="#L1_14" x="0" y="350"/><use xlink:href="#L1_14" x="350" y="350"/></pattern><rect x="0" y="0" width="100%" height="100%" fill="url(#pattern_L1_14)"/></g><g fi:class="KUsePattern"><pattern id="pattern_L1_15" width="350" height="350" patternUnits="userSpaceOnUse"><use xlink:href="#L1_15" x="-350" y="-350"/><use xlink:href="#L1_15" x="0" y="-350"/><use xlink:href="#L1_15" x="350" y="-350"/><use xlink:href="#L1_15" x="-350" y="0"/><use xlink:href="#L1_15" x="0" y="0"/><use xlink:href="#L1_15" x="350" y="0"/><use xlink:href="#L1_15" x="-350" y="350"/><use xlink:href="#L1_15" x="0" y="350"/><use xlink:href="#L1_15" x="350" y="350"/></pattern><rect x="0" y="0" width="100%" height="100%" fill="url(#pattern_L1_15)"/></g><g fi:class="KUsePattern"><pattern id="pattern_L1_20" width="350" height="350" patternUnits="userSpaceOnUse"><use xlink:href="#L1_20" x="-350" y="-350"/><use xlink:href="#L1_20" x="0" y="-350"/><use xlink:href="#L1_20" x="350" y="-350"/><use xlink:href="#L1_20" x="-350" y="0"/><use xlink:href="#L1_20" x="0" y="0"/><use xlink:href="#L1_20" x="350" y="0"/><use xlink:href="#L1_20" x="-350" y="350"/><use xlink:href="#L1_20" x="0" y="350"/><use xlink:href="#L1_20" x="350" y="350"/></pattern><rect x="0" y="0" width="100%" height="100%" fill="url(#pattern_L1_20)"/></g><g fi:class="KUsePattern"><pattern id="pattern_L1_23" width="350" height="350" patternUnits="userSpaceOnUse"><use xlink:href="#L1_23" x="-350" y="-350"/><use xlink:href="#L1_23" x="0" y="-350"/><use xlink:href="#L1_23" x="350" y="-350"/><use xlink:href="#L1_23" x="-350" y="0"/><use xlink:href="#L1_23" x="0" y="0"/><use xlink:href="#L1_23" x="350" y="0"/><use xlink:href="#L1_23" x="-350" y="350"/><use xlink:href="#L1_23" x="0" y="350"/><use xlink:href="#L1_23" x="350" y="350"/></pattern><rect x="0" y="0" width="100%" height="100%" fill="url(#pattern_L1_23)"/></g><g fi:class="KUsePattern"><pattern id="pattern_L1_25" width="350" height="350" patternUnits="userSpaceOnUse"><use xlink:href="#L1_25" x="-350" y="-350"/><use xlink:href="#L1_25" x="0" y="-350"/><use xlink:href="#L1_25" x="350" y="-350"/><use xlink:href="#L1_25" x="-350" y="0"/><use xlink:href="#L1_25" x="0" y="0"/><use xlink:href="#L1_25" x="350" y="0"/><use xlink:href="#L1_25" x="-350" y="350"/><use xlink:href="#L1_25" x="0" y="350"/><use xlink:href="#L1_25" x="350" y="350"/></pattern><rect x="0" y="0" width="100%" height="100%" fill="url(#pattern_L1_25)"/></g><g fi:class="KUsePattern"><pattern id="pattern_L1_26" width="350" height="350" patternUnits="userSpaceOnUse"><use xlink:href="#L1_26" x="-350" y="-350"/><use xlink:href="#L1_26" x="0" y="-350"/><use xlink:href="#L1_26" x="350" y="-350"/><use xlink:href="#L1_26" x="-350" y="0"/><use xlink:href="#L1_26" x="0" y="0"/><use xlink:href="#L1_26" x="350" y="0"/><use xlink:href="#L1_26" x="-350" y="350"/><use xlink:href="#L1_26" x="0" y="350"/><use xlink:href="#L1_26" x="350" y="350"/></pattern><rect x="0" y="0" width="100%" height="100%" fill="url(#pattern_L1_26)"/></g><g fi:class="KUsePattern"><pattern id="pattern_L1_28" width="350" height="350" patternUnits="userSpaceOnUse"><use xlink:href="#L1_28" x="-350" y="-350"/><use xlink:href="#L1_28" x="0" y="-350"/><use xlink:href="#L1_28" x="350" y="-350"/><use xlink:href="#L1_28" x="-350" y="0"/><use xlink:href="#L1_28" x="0" y="0"/><use xlink:href="#L1_28" x="350" y="0"/><use xlink:href="#L1_28" x="-350" y="350"/><use xlink:href="#L1_28" x="0" y="350"/><use xlink:href="#L1_28" x="350" y="350"/></pattern><rect x="0" y="0" width="100%" height="100%" fill="url(#pattern_L1_28)"/></g><g fi:class="KUsePattern"><pattern id="pattern_L1_30" width="350" height="350" patternUnits="userSpaceOnUse"><use xlink:href="#L1_30" x="-350" y="-350"/><use xlink:href="#L1_30" x="0" y="-350"/><use xlink:href="#L1_30" x="350" y="-350"/><use xlink:href="#L1_30" x="-350" y="0"/><use xlink:href="#L1_30" x="0" y="0"/><use xlink:href="#L1_30" x="350" y="0"/><use xlink:href="#L1_30" x="-350" y="350"/><use xlink:href="#L1_30" x="0" y="350"/><use xlink:href="#L1_30" x="350" y="350"/></pattern><rect x="0" y="0" width="100%" height="100%" fill="url(#pattern_L1_30)"/></g><g fi:class="KUsePattern"><pattern id="pattern_L1_31" width="350" height="350" patternUnits="userSpaceOnUse"><use xlink:href="#L1_31" x="-350" y="-350"/><use xlink:href="#L1_31" x="0" y="-350"/><use xlink:href="#L1_31" x="350" y="-350"/><use xlink:href="#L1_31" x="-350" y="0"/><use xlink:href="#L1_31" x="0" y="0"/><use xlink:href="#L1_31" x="350" y="0"/><use xlink:href="#L1_31" x="-350" y="350"/><use xlink:href="#L1_31" x="0" y="350"/><use xlink:href="#L1_31" x="350" y="350"/></pattern><rect x="0" y="0" width="100%" height="100%" fill="url(#pattern_L1_31)"/></g><g fi:class="KUsePattern"><pattern id="pattern_L1_32" width="350" height="350" patternUnits="userSpaceOnUse"><use xlink:href="#L1_32" x="-350" y="-350"/><use xlink:href="#L1_32" x="0" y="-350"/><use xlink:href="#L1_32" x="350" y="-350"/><use xlink:href="#L1_32" x="-350" y="0"/><use xlink:href="#L1_32" x="0" y="0"/><use xlink:href="#L1_32" x="350" y="0"/><use xlink:href="#L1_32" x="-350" y="350"/><use xlink:href="#L1_32" x="0" y="350"/><use xlink:href="#L1_32" x="350" y="350"/></pattern><rect x="0" y="0" width="100%" height="100%" fill="url(#pattern_L1_32)"/></g><g fi:class="KUsePattern"><pattern id="pattern_L1_34" width="350" height="350" patternUnits="userSpaceOnUse"><use xlink:href="#L1_34" x="-350" y="-350"/><use xlink:href="#L1_34" x="0" y="-350"/><use xlink:href="#L1_34" x="350" y="-350"/><use xlink:href="#L1_34" x="-350" y="0"/><use xlink:href="#L1_34" x="0" y="0"/><use xlink:href="#L1_34" x="350" y="0"/><use xlink:href="#L1_34" x="-350" y="350"/><use xlink:href="#L1_34" x="0" y="350"/><use xlink:href="#L1_34" x="350" y="350"/></pattern><rect x="0" y="0" width="100%" height="100%" fill="url(#pattern_L1_34)"/></g></svg>