<svg xmlns="http://www.w3.org/2000/svg" xmlns:xlink="http://www.w3.org/1999/xlink" xmlns:fi="http://pattern.flaticon.com/" x="0" y="0" width="700" height="350" viewBox="0 0 700 350"><rect x="0px" y="0px" width="100%" height="100%" opacity="0" fill="#ffffff"/><defs><g transform="matrix(0.0416666679084301 0 0 0.0416666679084301 77.5 340)" id="L1_5"><path d="m248 0h-208c-22.082031.0273438-39.9726562 17.917969-40 40v400c.0273438 22.082031 17.917969 39.972656 40 40h208c22.082031-.027344 39.972656-17.917969 40-40v-400c-.027344-22.082031-17.917969-39.9726562-40-40zm-208 16h208c13.253906 0 24 10.746094 24 24v24h-256v-24c0-13.253906 10.746094-24 24-24zm232 64v320h-256v-320zm-24 384h-208c-13.253906 0-24-10.746094-24-24v-24h256v24c0 13.253906-10.746094 24-24 24zm0 0"/><path d="m120 432h48v16h-48zm0 0"/><path d="m48 32h16v16h-16zm0 0"/><path d="m80 32h32v16h-32zm0 0"/><path d="m72 176h16v16h-16zm0 0"/><path d="m104 176h48v16h-48zm0 0"/><path d="m88 208h32v16h-32zm0 0"/><path d="m136 208h32v16h-32zm0 0"/><path d="m104 240h96v16h-96zm0 0"/><path d="m88 272h48v16h-48zm0 0"/><path d="m152 272h32v16h-32zm0 0"/><path d="m120 304h16v16h-16zm0 0"/><path d="m152 304h64v16h-64zm0 0"/><path d="m112 336h80v16h-80zm0 0"/><path d="m50.34375 133.65625 16 16 11.3125-11.3125-10.34375-10.34375 10.34375-10.34375-11.3125-11.3125-16 16c-3.121094 3.125-3.121094 8.1875 0 11.3125zm0 0"/><path d="m117.65625 149.65625 16-16c3.121094-3.125 3.121094-8.1875 0-11.3125l-16-16-11.3125 11.3125 10.34375 10.34375-10.34375 10.34375zm0 0"/></g><g transform="matrix(0.14086417820268365 -0.03774444279188284 0.03774444279188284 0.14086417820268365 132.13392976921114 150.2512623093149)" id="L1_6"><path d="m80 32h16v16h-16zm0 0"/><path d="m112 32h16v16h-16zm0 0"/><path d="m144 32h16v16h-16zm0 0"/><path d="m456 0h-384c-13.253906 0-24 10.746094-24 24v24h-24c-13.253906 0-24 10.746094-24 24v384c0 13.253906 10.746094 24 24 24h384c13.253906 0 24-10.746094 24-24v-24h24c13.253906 0 24-10.746094 24-24v-384c0-13.253906-10.746094-24-24-24zm-384 16h384c4.417969 0 8 3.582031 8 8v40h-400v-40c0-4.417969 3.582031-8 8-8zm-48 48h24v48h-32v-40c0-4.417969 3.582031-8 8-8zm392 392c0 4.417969-3.582031 8-8 8h-384c-4.417969 0-8-3.582031-8-8v-328h32v280c0 13.253906 10.746094 24 24 24h344zm40-40h-384c-4.417969 0-8-3.582031-8-8v-328h400v328c0 4.417969-3.582031 8-8 8zm0 0"/><path d="m264 104c-79.527344 0-144 64.472656-144 144s64.472656 144 144 144 144-64.472656 144-144c-.09375-79.492188-64.507812-143.90625-144-144zm0 272c-70.691406 0-128-57.308594-128-128s57.308594-128 128-128 128 57.308594 128 128c-.082031 70.65625-57.34375 127.917969-128 128zm0 0"/><path d="m256 128h16v16h-16zm0 0"/><path d="m197.070312 148.078125 13.855469-8 8 13.855469-13.855469 8.003906zm0 0"/><path d="m156.078125 194.925781 8-13.855469 13.855469 8-8 13.859376zm0 0"/><path d="m144 240h16v16h-16zm0 0"/><path d="m156.082031 301.066406 13.855469-8 8 13.859375-13.855469 8zm0 0"/><path d="m350.070312 306.929688 8-13.855469 13.855469 8-8 13.859375zm0 0"/><path d="m368 240h16v16h-16zm0 0"/><path d="m350.058594 189.070312 13.859375-8 8 13.855469-13.859375 8zm0 0"/><path d="m309.070312 153.941406 8-13.855468 13.855469 7.996093-7.996093 13.859375zm0 0"/><path d="m317.511719 208.230469c-13.34375 3.28125-57.496094 14.402343-65.511719 18.984375-11.488281 6.628906-15.425781 21.3125-8.800781 32.800781 6.628906 11.488281 21.3125 15.429687 32.800781 8.800781 8-4.625 39.679688-37.328125 49.199219-47.25 2.464843-2.566406 2.933593-6.457031 1.152343-9.539062-1.78125-3.078125-5.382812-4.613282-8.839843-3.761719zm-49.511719 46.699219c-2.476562 1.449218-5.542969 1.464843-8.03125.035156-2.488281-1.429688-4.019531-4.085938-4.015625-6.957032.007813-2.871093 1.550781-5.515624 4.046875-6.9375 11.015625-4.085937 22.273438-7.5 33.703125-10.222656-8.070313 8.539063-16.65625 16.582032-25.703125 24.082032zm0 0"/><path d="m224 304h32v16h-32zm0 0"/><path d="m272 304h32v16h-32zm0 0"/><path d="m192 32h208v16h-208zm0 0"/></g><g transform="matrix(0.0833333358168602 0 0 0.0833333358168602 242.5 67.5)" id="L1_7"><path d="m472 320h-16v-248c-.027344-22.082031-17.917969-39.972656-40-40h-16v-8c0-13.253906-10.746094-24-24-24h-272c-13.253906 0-24 10.746094-24 24v8h-16c-22.082031.027344-39.972656 17.917969-40 40v248h-16c-4.417969 0-8 3.582031-8 8v32c0 13.253906 10.746094 24 24 24h432c13.253906 0 24-10.746094 24-24v-32c0-4.417969-3.582031-8-8-8zm-376-256h288v200c0 4.417969-3.582031 8-8 8h-272c-4.417969 0-8-3.582031-8-8zm8-48h272c4.417969 0 8 3.582031 8 8v24h-288v-24c0-4.417969 3.582031-8 8-8zm-64 56c0-13.253906 10.746094-24 24-24h16v216c0 13.253906 10.746094 24 24 24h272c13.253906 0 24-10.746094 24-24v-216h16c13.253906 0 24 10.746094 24 24v248h-400zm424 288c0 4.417969-3.582031 8-8 8h-432c-4.417969 0-8-3.582031-8-8v-24h448zm0 0"/><path d="m208 344h64v16h-64zm0 0"/><path d="m112 24h16v16h-16zm0 0"/><path d="m144 24h16v16h-16zm0 0"/><path d="m176 24h16v16h-16zm0 0"/><path d="m240 232c35.347656 0 64-28.652344 64-64s-28.652344-64-64-64-64 28.652344-64 64c.039062 35.328125 28.671875 63.960938 64 64zm0-112c26.507812 0 48 21.492188 48 48s-21.492188 48-48 48-48-21.492188-48-48c.027344-26.5 21.5-47.972656 48-48zm0 0"/><path d="m223.023438 196.28125 16.976562-16.96875 16.976562 16.96875 11.3125-11.3125-16.976562-16.96875 16.976562-16.96875-11.3125-11.3125-16.976562 16.96875-16.976562-16.96875-11.3125 11.3125 16.976562 16.96875-16.976562 16.96875zm0 0"/><path d="m312 96h40v16h-40zm0 0"/><path d="m144 224h40v16h-40zm0 0"/><path d="m312 224h40v16h-40zm0 0"/><path d="m320 128h32v16h-32zm0 0"/><path d="m320 160h32v16h-32zm0 0"/><path d="m320 192h32v16h-32zm0 0"/><path d="m128 128h32v16h-32zm0 0"/><path d="m144 160h16v16h-16zm0 0"/><path d="m128 192h32v16h-32zm0 0"/><path d="m130.34375 117.65625 11.3125-11.3125-10.34375-10.34375 10.34375-10.34375-11.3125-11.3125-16 16c-3.121094 3.125-3.121094 8.1875 0 11.3125zm0 0"/><path d="m173.65625 117.65625 16-16c3.121094-3.125 3.121094-8.1875 0-11.3125l-16-16-11.3125 11.3125 10.34375 10.34375-10.34375 10.34375zm0 0"/></g><g transform="matrix(0.18109423773855043 0.04852405475597433 -0.04852405475597433 0.18109423773855043 -33.47522689128439 291.70667694724904)" id="L1_8"><path d="m392.042969 128.015625h-.398438c-4.15625-40.855469-38.535156-71.949219-79.601562-72-7.246094.003906-14.460938 1.007813-21.4375 2.976563-24.285157-45.207032-76.191407-68.113282-125.953125-55.582032-49.761719 12.53125-84.628906 57.292969-84.609375 108.605469.007812 5.441406.425781 10.875 1.25 16.253906-47.167969 3.605469-83.042969 43.855469-81.2265628 91.125 1.8164058 47.269531 40.6757818 84.644531 87.9765628 84.621094h24v-16h-24c-39.761719 0-72-32.234375-72-72s32.238281-72 72-72c.417969 0 .800781 0 1.242187.0625l1.375.082031c2.515625.152344 4.941406-.9375 6.496094-2.921875 1.585938-1.929687 2.179688-4.496093 1.601562-6.925781-11.46875-48.003906 15.367188-96.875 62.027344-112.960938 46.65625-16.085937 97.90625 5.863282 118.460938 50.734376 1.753906 3.824218 6.167968 5.636718 10.101562 4.144531 19.59375-7.5 41.617188-4.898438 58.921875 6.957031 17.308594 11.851562 27.691407 31.449219 27.773438 52.429688v.796874c.003906 2.261719.957031 4.414063 2.632812 5.929688 1.683594 1.503906 3.917969 2.242188 6.167969 2.03125 26.449219-2.65625 52.210938 9.480469 67.007812 31.5625 14.792969 22.082031 16.21875 50.523438 3.707032 73.972656-12.515625 23.453125-36.933594 38.101563-63.515625 38.105469h-24v16h24c48.601562 0 88-39.398437 88-88s-39.398438-88-88-88zm0 0"/><path d="m336.042969 200.015625h-192c-13.253907 0-24 10.746094-24 24v176c0 13.253906 10.746093 24 24 24h192c13.257812 0 24-10.746094 24-24v-176c0-13.253906-10.742188-24-24-24zm-192 16h192c4.421875 0 8 3.582031 8 8v24h-208v-24c0-4.417969 3.582031-8 8-8zm192 192h-192c-4.417969 0-8-3.582031-8-8v-136h208v136c0 4.417969-3.578125 8-8 8zm0 0"/><path d="m152.042969 224.015625h16v16h-16zm0 0"/><path d="m176.042969 224.015625h16v16h-16zm0 0"/><path d="m200.042969 224.015625h16v16h-16zm0 0"/><path d="m226.675781 312.160156c-13.175781-1.453125-25.035156 8.046875-26.488281 21.222656-1.453125 13.175782 8.050781 25.035157 21.226562 26.488282.871094.09375 1.75.144531 2.628907.144531 12.773437.035156 23.335937-9.9375 24.03125-22.691406.695312-12.75-8.714844-23.816407-21.414063-25.171875zm5.320313 24.734375c-.472656 4.277344-4.246094 7.414063-8.539063 7.097657-4.292969-.3125-7.5625-3.96875-7.40625-8.269532.15625-4.300781 3.691407-7.707031 7.992188-7.707031.296875 0 .589843.015625.882812.046875 4.378907.484375 7.546875 4.417969 7.078125 8.800781zm0 0"/><path d="m168.042969 312.015625h16v48h-16zm0 0"/><path d="m264.042969 312.015625h16v48h-16zm0 0"/><path d="m296.042969 312.015625h16v48h-16zm0 0"/></g><g transform="matrix(0.18749995529651642 0 0 0.18749995529651642 217.5 217.5)" id="L1_9"><path d="m176 336.40625v-22.902344c14.832031-8.5625 23.976562-24.378906 24-41.503906v-8c13.253906 0 24-10.746094 24-24v-48c0-48.601562-39.398438-88-88-88s-88 39.398438-88 88v48c0 13.253906 10.746094 24 24 24v8c.023438 17.125 9.167969 32.941406 24 41.503906v22.902344c-54.121094 4.210938-95.9140625 49.3125-96 103.59375v32c0 4.417969 3.582031 8 8 8h256c4.417969 0 8-3.582031 8-8v-32c-.085938-54.28125-41.878906-99.382812-96-103.59375zm24-88.40625v-16c4.417969 0 8 3.582031 8 8s-3.582031 8-8 8zm-128 0c-4.417969 0-8-3.582031-8-8s3.582031-8 8-8zm7-39.9375c-4 .503906-7 3.90625-7 7.9375-2.730469.027344-5.4375.523438-8 1.472656v-25.472656c0-39.765625 32.234375-72 72-72s72 32.234375 72 72v25.472656c-2.5625-.949218-5.269531-1.445312-8-1.472656v-8c0-3.03125-1.710938-5.804688-4.425781-7.160156-10.613281-5.304688-18.03125-21.601563-20-27.375-.945313-2.816406-3.371094-4.875-6.304688-5.351563-2.929687-.476562-5.882812.714844-7.667969 3.085938-21.65625 28.882812-81.992187 36.800781-82.601562 36.863281zm9 63.9375v-49.160156c15.777344-2.777344 54.207031-11.414063 77.601562-32.511719 4.328126 8.726563 10.628907 16.324219 18.398438 22.199219v59.472656c0 17.671875-14.328125 32-32 32h-32c-17.671875 0-32-14.328125-32-32zm24 69.191406v-21.910156c2.640625.460938 5.316406.703125 8 .71875h32c2.683594-.015625 5.359375-.257812 8-.71875v21.910156l-24 30.007813zm12.601562 41.359375-17.050781 12.800781-10.558593-26.398437 7.59375-11.402344zm42.816407-25.015625 7.589843 11.402344-10.558593 26.398438-17.050781-12.800782zm88.582031 106.464844h-240v-24c.070312-42.40625 30.34375-78.746094 72.039062-86.480469l-6.695312 10.039063c-1.46875 2.1875-1.769531 4.960937-.800781 7.410156l16 40c.925781 2.3125 2.875 4.0625 5.273437 4.734375.710938.195313 1.445313.296875 2.183594.296875 1.730469 0 3.414062-.5625 4.800781-1.601562l27.199219-20.398438 27.199219 20.398438c1.386719 1.039062 3.070312 1.601562 4.800781 1.601562.730469-.003906 1.457031-.101562 2.160156-.296875 2.398438-.671875 4.347656-2.421875 5.273438-4.734375l16-40c.96875-2.449219.667968-5.222656-.800782-7.410156l-6.632812-10.039063c41.679688 7.75 71.933594 44.085938 72 86.480469zm0 0"/><path d="m344 0c-38.117188-.0390625-73.195312 20.800781-91.394531 54.296875-18.195313 33.496094-16.585938 74.265625 4.195312 106.222656l-16.105469 36.234375c-1.34375 3.023438-.6875 6.5625 1.652344 8.90625 2.34375 2.339844 5.882813 2.996094 8.910156 1.652344l36.214844-16.113281c37.234375 24.203125 85.730469 22.089843 120.722656-5.261719 34.988282-27.347656 48.75-73.898438 34.257813-115.878906-14.492187-41.976563-54.042969-70.121094-98.453125-70.058594zm0 192c-18.316406.015625-36.175781-5.730469-51.046875-16.425781-1.359375-.96875-2.988281-1.488281-4.65625-1.484375-1.121094-.003906-2.226563.230468-3.25.6875l-21.285156 9.460937 9.453125-21.285156c1.152344-2.589844.847656-5.59375-.796875-7.898437-23.539063-33.066407-21.390625-77.945313 5.199219-108.609376 26.585937-30.667968 70.710937-39.152343 106.777343-20.539062 36.066407 18.613281 54.710938 59.492188 45.121094 98.933594-9.59375 39.4375-44.925781 67.1875-85.515625 67.160156zm0 0"/><path d="m306.34375 74.34375-24 24c-3.121094 3.125-3.121094 8.1875 0 11.3125l24 24 11.3125-11.3125-18.34375-18.34375 18.34375-18.34375zm0 0"/><path d="m405.65625 98.34375-24-24-11.3125 11.3125 18.34375 18.34375-18.34375 18.34375 11.3125 11.3125 24-24c3.121094-3.125 3.121094-8.1875 0-11.3125zm0 0"/><path d="m320.585938 141.039062 31.96875-80.007812 14.859374 5.933594-31.972656 80.011718zm0 0"/><path d="m120 232c0 4.417969-3.582031 8-8 8s-8-3.582031-8-8 3.582031-8 8-8 8 3.582031 8 8zm0 0"/><path d="m168 232c0 4.417969-3.582031 8-8 8s-8-3.582031-8-8 3.582031-8 8-8 8 3.582031 8 8zm0 0"/></g><g transform="matrix(0.1041666641831398 0 0 0.1041666641831398 62.5 237.5)" id="L1_10"><path d="m152 320h-80c-39.746094.042969-71.9570312 32.253906-72 72v80c0 4.417969 3.582031 8 8 8h208c4.417969 0 8-3.582031 8-8v-80c-.042969-39.746094-32.253906-71.957031-72-72zm-1.472656 54.3125-23.449219-3.914062 19.546875-23.460938zm-15.617188-38.3125-22.910156 27.496094-22.910156-27.496094zm-57.535156 10.945312 19.546875 23.453126-23.449219 3.90625zm-61.375 45.054688c.050781-27.292969 19.75-50.578125 46.65625-55.152344l-6.578125 46.015625c-.359375 2.527344.503906 5.070313 2.328125 6.855469 1.824219 1.78125 4.390625 2.585938 6.90625 2.167969l38.6875-6.445313v78.558594h-48v-72h-16v72h-24zm192 72h-24v-72h-16v72h-48v-78.558594l38.6875 6.445313c2.515625.417969 5.082031-.386719 6.90625-2.167969 1.824219-1.785156 2.6875-4.328125 2.328125-6.855469l-6.578125-46.015625c26.90625 4.570313 46.609375 27.859375 46.65625 55.152344zm0 0"/><path d="m168 264v-24c4.417969 0 8-3.582031 8-8 0-35.347656-28.652344-64-64-64s-64 28.652344-64 64c0 4.417969 3.582031 8 8 8v24c0 30.929688 25.070312 56 56 56s56-25.070312 56-56zm-56-80c22.867188.03125 42.550781 16.160156 47.070312 38.574219-9.820312-3.8125-18.3125-10.421875-24.414062-19.015625-1.328125-1.992188-3.480469-3.28125-5.863281-3.519532-.273438 0-.535157 0-.800781 0-2.121094 0-4.15625.84375-5.65625 2.34375-8.734376 8.707032-36.558594 16.175782-57.375 20.015626 4.589843-22.332032 24.238281-38.371094 47.039062-38.398438zm0 120c-22.082031-.027344-39.972656-17.917969-40-40l-.054688-26.632812c19.097657-3.117188 37.574219-9.285157 54.71875-18.261719 6.929688 7.855469 15.605469 13.972656 25.335938 17.855469v27.039062c-.027344 22.082031-17.917969 39.972656-40 40zm0 0"/><path d="m400 240h-16c-.09375 79.492188-64.507812 143.90625-144 144v16c88.324219-.101562 159.898438-71.675781 160-160zm0 0"/><path d="m240 80c-52.003906.054688-100.75 25.320312-130.769531 67.785156l13.066406 9.230469c27.019531-38.21875 70.898437-60.960937 117.703125-61.015625zm0 0"/><path d="m240 416v16c105.988281-.125 191.875-86.011719 192-192h-16c-.109375 97.15625-78.84375 175.890625-176 176zm0 0"/><path d="m240 64v-16c-73.652344.265625-140.746094 42.386719-172.992188 108.609375l14.398438 6.949219c29.5625-60.707032 91.070312-99.320313 158.59375-99.558594zm0 0"/><path d="m288 24h16v16h-16zm0 0"/><path d="m312 24h16v16h-16zm0 0"/><path d="m336 24h16v16h-16zm0 0"/><path d="m456 0h-176c-13.253906 0-24 10.746094-24 24v176c0 13.253906 10.746094 24 24 24h176c13.253906 0 24-10.746094 24-24v-176c0-13.253906-10.746094-24-24-24zm-176 16h176c4.417969 0 8 3.582031 8 8v24h-192v-24c0-4.417969 3.582031-8 8-8zm176 192h-176c-4.417969 0-8-3.582031-8-8v-136h192v136c0 4.417969-3.582031 8-8 8zm0 0"/><path d="m330.34375 98.34375-24 24c-3.121094 3.125-3.121094 8.1875 0 11.3125l24 24 11.3125-11.3125-18.34375-18.34375 18.34375-18.34375zm0 0"/><path d="m405.65625 98.34375-11.3125 11.3125 18.34375 18.34375-18.34375 18.34375 11.3125 11.3125 24-24c3.121094-3.125 3.121094-8.1875 0-11.3125zm0 0"/><path d="m344.585938 165.035156 31.96875-80.007812 14.859374 5.933594-31.972656 80.011718zm0 0"/></g><g transform="matrix(0.0833333358168602 0 0 0.0833333358168602 155 330)" id="L1_11"><path d="m32 80h16v16h-16zm0 0"/><path d="m64 80h16v16h-16zm0 0"/><path d="m96 80h16v16h-16zm0 0"/><path d="m456 0h-384c-13.253906 0-24 10.746094-24 24v24h-24c-13.253906 0-24 10.746094-24 24v384c0 13.253906 10.746094 24 24 24h384c13.253906 0 24-10.746094 24-24v-24h24c13.253906 0 24-10.746094 24-24v-384c0-13.253906-10.746094-24-24-24zm-392 24c0-4.417969 3.582031-8 8-8h384c4.417969 0 8 3.582031 8 8v40h-33.472656c-3.378906-9.554688-12.394532-15.957031-22.527344-16h-344zm-40 40h384c4.417969 0 8 3.582031 8 8v40h-400v-40c0-4.417969 3.582031-8 8-8zm384 400h-384c-4.417969 0-8-3.582031-8-8v-328h400v328c0 4.417969-3.582031 8-8 8zm48-48h-24v-336h32v328c0 4.417969-3.582031 8-8 8zm0 0"/><path d="m144 80h208v16h-208zm0 0"/><path d="m256 232h-80c-2.996094 0-5.742188 1.675781-7.113281 4.339844-1.371094 2.664062-1.140625 5.871094.601562 8.308594l40 56c1.5 2.105468 3.925781 3.351562 6.511719 3.351562s5.011719-1.246094 6.511719-3.351562l40-56c1.742187-2.4375 1.972656-5.644532.601562-8.308594-1.371093-2.664063-4.117187-4.339844-7.113281-4.339844zm-40 50.230469-24.457031-34.230469h48.914062zm0 0"/><path d="m216 144c-46.191406-.019531-86.855469 30.441406-99.816406 74.777344-12.960938 44.332031 4.890625 91.902344 43.816406 116.765625v16.457031c0 4.417969 3.582031 8 8 8h96c4.417969 0 8-3.582031 8-8v-16.457031c38.925781-24.863281 56.777344-72.433594 43.816406-116.765625-12.960937-44.335938-53.625-74.796875-99.816406-74.777344zm44 180.136719c-2.472656 1.425781-3.996094 4.0625-4 6.917969v12.945312h-80v-12.945312c-.003906-2.855469-1.527344-5.492188-4-6.917969-34.492188-19.914063-51.308594-60.515625-41-98.988281 10.308594-38.472657 45.171875-65.222657 85-65.222657s74.691406 26.75 85 65.222657c10.308594 38.472656-6.507812 79.074218-41 98.988281zm0 0"/><path d="m264 368h-96c-4.417969 0-8 3.582031-8 8v32c0 4.417969 3.582031 8 8 8h16v16c0 4.417969 3.582031 8 8 8h48c4.417969 0 8-3.582031 8-8v-16h16c4.417969 0 8-3.582031 8-8v-32c0-4.417969-3.582031-8-8-8zm-32 56h-32v-8h32zm24-24h-80v-16h80zm0 0"/><path d="m336 232h32v16h-32zm0 0"/><path d="m315.921875 173.070312 27.714844-16 8 13.859376-27.714844 15.996093zm0 0"/><path d="m80.359375 170.933594 8-13.855469 27.714844 16-8 13.855469zm0 0"/><path d="m64 232h32v16h-32zm0 0"/><path d="m80.359375 309.074219 27.710937-16 8 13.859375-27.714843 15.996094zm0 0"/><path d="m315.921875 306.933594 8-13.855469 27.714844 16-8 13.855469zm0 0"/></g><g transform="matrix(0.1458333283662796 0 0 0.1458333283662796 315 140)" id="L1_12"><path d="m472 352.5h-16v-248c-.027344-22.082031-17.917969-39.972656-40-40h-16v-40c0-13.253906-10.746094-24-24-24h-272c-13.253906 0-24 10.746094-24 24v40h-16c-22.082031.027344-39.972656 17.917969-40 40v248h-16c-4.417969 0-8 3.582031-8 8v32c0 13.253906 10.746094 24 24 24h432c13.253906 0 24-10.746094 24-24v-32c0-4.417969-3.582031-8-8-8zm-376-288h288v200c0 4.417969-3.582031 8-8 8h-272c-4.417969 0-8-3.582031-8-8zm8-48h272c4.417969 0 8 3.582031 8 8v24h-288v-24c0-4.417969 3.582031-8 8-8zm-64 88c0-13.253906 10.746094-24 24-24h16v184c0 13.253906 10.746094 24 24 24h272c13.253906 0 24-10.746094 24-24v-184h16c13.253906 0 24 10.746094 24 24v248h-400zm424 288c0 4.417969-3.582031 8-8 8h-432c-4.417969 0-8-3.582031-8-8v-24h448zm0 0"/><path d="m208 376.5h64v16h-64zm0 0"/><path d="m112 24.5h16v16h-16zm0 0"/><path d="m144 24.5h16v16h-16zm0 0"/><path d="m176 24.5h16v16h-16zm0 0"/><path d="m128 112.5h16v16h-16zm0 0"/><path d="m160 112.5h32v16h-32zm0 0"/><path d="m128 144.5h64v16h-64zm0 0"/><path d="m232 160.5h112c4.417969 0 8-3.582031 8-8v-48c0-4.417969-3.582031-8-8-8h-112c-4.417969 0-8 3.582031-8 8v48c0 4.417969 3.582031 8 8 8zm8-48h96v32h-96zm0 0"/><path d="m224 192.5h32v16h-32zm0 0"/><path d="m272 192.5h80v16h-80zm0 0"/><path d="m224 224.5h64v16h-64zm0 0"/><path d="m304 224.5h48v16h-48zm0 0"/><path d="m128 192.5h64v16h-64zm0 0"/><path d="m128 224.5h64v16h-64zm0 0"/></g><g transform="matrix(0.0416666679084301 0 0 0.0416666679084301 252.5 340)" id="L1_13"><path d="m90.34375 114.34375-24 24c-3.121094 3.125-3.121094 8.1875 0 11.3125l24 24 11.3125-11.3125-18.34375-18.34375 18.34375-18.34375zm0 0"/><path d="m221.65625 138.34375-24-24-11.3125 11.3125 18.34375 18.34375-18.34375 18.34375 11.3125 11.3125 24-24c3.121094-3.125 3.121094-8.1875 0-11.3125zm0 0"/><path d="m120.589844 181.035156 31.96875-80.007812 14.859375 5.9375-31.972657 80.007812zm0 0"/><path d="m136 32h16v16h-16zm0 0"/><path d="m59.148438 70.464844 11.3125-11.316406 11.316406 11.316406-11.316406 11.3125zm0 0"/><path d="m32 136h16v16h-16zm0 0"/><path d="m59.144531 217.53125 11.3125-11.3125 11.316407 11.3125-11.316407 11.3125zm0 0"/><path d="m136 240h16v16h-16zm0 0"/><path d="m206.21875 217.535156 11.316406-11.3125 11.3125 11.3125-11.3125 11.316406zm0 0"/><path d="m240 136h16v16h-16zm0 0"/><path d="m206.222656 70.46875 11.316406-11.3125 11.3125 11.3125-11.3125 11.3125zm0 0"/><path d="m80 440h224v16h-224zm0 0"/><path d="m336 440h-16v16h24c4.417969 0 8-3.582031 8-8v-32h-16zm0 0"/><path d="m32 440h32v16h-32zm0 0"/><path d="m40 408h16v16h-16zm0 0"/><path d="m72 408h16v16h-16zm0 0"/><path d="m104 408h16v16h-16zm0 0"/><path d="m136 408h16v16h-16zm0 0"/><path d="m168 408h16v16h-16zm0 0"/><path d="m200 408h16v16h-16zm0 0"/><path d="m232 408h16v16h-16zm0 0"/><path d="m264 408h16v16h-16zm0 0"/><path d="m296 408h16v16h-16zm0 0"/><path d="m40 376h16v16h-16zm0 0"/><path d="m72 376h16v16h-16zm0 0"/><path d="m104 376h16v16h-16zm0 0"/><path d="m136 376h16v16h-16zm0 0"/><path d="m168 376h16v16h-16zm0 0"/><path d="m200 376h16v16h-16zm0 0"/><path d="m232 376h16v16h-16zm0 0"/><path d="m264 376h16v16h-16zm0 0"/><path d="m296 376h16v16h-16zm0 0"/><path d="m416 264h-64c-13.253906 0-24-10.746094-24-24s10.746094-24 24-24h80c22.089844 0 40-17.910156 40-40s-17.910156-40-40-40h-144v-16c0-3.980469-2.925781-7.355469-6.863281-7.921875l-31.257813-4.460937c-1.484375-4.371094-3.238281-8.648438-5.253906-12.800782l18.910156-25.214844c2.386719-3.183593 2.074219-7.632812-.734375-10.449218l-33.953125-33.953125c-2.816406-2.808594-7.265625-3.121094-10.449218-.734375l-25.230469 18.910156c-4.152344-2.015625-8.429688-3.769531-12.800781-5.253906l-4.445313-31.257813c-.566406-3.9375-3.941406-6.863281-7.921875-6.863281h-48c-3.980469 0-7.355469 2.925781-7.921875 6.863281l-4.460937 31.257813c-4.371094 1.484375-8.648438 3.238281-12.800782 5.253906l-25.214844-18.910156c-3.183593-2.386719-7.632812-2.074219-10.449218.734375l-33.953125 33.953125c-2.808594 2.816406-3.121094 7.265625-.734375 10.449218l18.910156 25.230469c-2.015625 4.152344-3.769531 8.429688-5.253906 12.800781l-31.257813 4.464844c-3.933593.5625-6.8554685 3.929688-6.863281 7.902344v48c0 3.980469 2.925781 7.355469 6.863281 7.921875l31.257813 4.460937c1.484375 4.371094 3.238281 8.648438 5.253906 12.800782l-18.910156 25.214844c-2.386719 3.183593-2.074219 7.632812.734375 10.449218l33.953125 33.953125c2.816406 2.808594 7.265625 3.121094 10.449218.734375l25.222657-18.910156c4.152343 2.015625 8.429687 3.769531 12.800781 5.253906l4.464844 31.257813c.5625 3.9375 3.933594 6.859375 7.910156 6.863281h48c3.980469 0 7.355469-2.925781 7.921875-6.863281l4.460937-31.257813c4.371094-1.484375 8.648438-3.238281 12.800782-5.253906l25.214844 18.910156c3.183593 2.386719 7.632812 2.074219 10.449218-.734375l33.953125-33.953125c2.808594-2.816406 3.121094-7.265625.734375-10.449218l-18.910156-25.222657c2.015625-4.152343 3.769531-8.429687 5.253906-12.800781l31.257813-4.464844c3.9375-.5625 6.859375-3.933594 6.863281-7.910156v-16h144c13.253906 0 24 10.746094 24 24s-10.746094 24-24 24h-80c-22.089844 0-40 17.910156-40 40s17.910156 40 40 40h64c22.082031.027344 39.972656 17.917969 40 40v24c-.027344 22.082031-17.917969 39.972656-40 40h-8v-8c0-4.417969-3.582031-8-8-8h-16c0-13.253906-10.746094-24-24-24h-336c-13.253906 0-24 10.746094-24 24v88c0 13.253906 10.746094 24 24 24h336c13.253906 0 24-10.746094 24-24v-40h16c4.417969 0 8-3.582031 8-8v-8h8c30.910156-.039062 55.960938-25.089844 56-56v-24c-.039062-30.910156-25.089844-55.960938-56-56zm-144-102.9375-29.359375 4.183594c-3.105469.449218-5.667969 2.667968-6.542969 5.683594-1.925781 6.667968-4.574218 13.105468-7.898437 19.199218-1.507813 2.753906-1.269531 6.136719.617187 8.648438l17.757813 23.6875-24.125 24.128906-23.6875-17.792969c-2.511719-1.886719-5.894531-2.125-8.648438-.617187-6.09375 3.324218-12.53125 5.972656-19.203125 7.894531-3.011718.878906-5.230468 3.4375-5.679687 6.546875l-4.167969 29.375h-34.125l-4.183594-29.359375c-.449218-3.105469-2.667968-5.667969-5.683594-6.542969-6.667968-1.925781-13.105468-4.574218-19.199218-7.898437-2.753906-1.507813-6.136719-1.269531-8.648438.617187l-23.6875 17.757813-24.109375-24.125 17.773438-23.6875c1.886719-2.511719 2.125-5.894531.617187-8.648438-3.324218-6.09375-5.972656-12.53125-7.894531-19.203125-.878906-3.011718-3.4375-5.230468-6.546875-5.679687l-29.375-4.167969v-34.125l29.359375-4.183594c3.105469-.449218 5.667969-2.667968 6.542969-5.683594 1.925781-6.667968 4.574218-13.109374 7.90625-19.199218 1.503906-2.746094 1.265625-6.121094-.609375-8.632813l-17.757813-23.6875 24.125-24.125 23.671875 17.773438c2.511719 1.886719 5.894531 2.132812 8.648438.625 6.09375-3.332031 12.53125-5.980469 19.203125-7.902344 3.011718-.878906 5.230468-3.4375 5.679687-6.546875l4.167969-29.375h34.125l4.183594 29.359375c.449218 3.105469 2.667968 5.667969 5.683594 6.542969 6.667968 1.925781 13.109374 4.574218 19.199218 7.90625 2.746094 1.503906 6.121094 1.265625 8.632813-.609375l23.6875-17.757813 24.125 24.125-17.773438 23.671875c-1.886719 2.511719-2.132812 5.894531-.625 8.648438 3.332031 6.09375 5.980469 12.53125 7.902344 19.203125.878906 3.011718 3.4375 5.230468 6.546875 5.679687l29.359375 4.183594zm96 294.9375c0 4.417969-3.582031 8-8 8h-336c-4.417969 0-8-3.582031-8-8v-88c0-4.417969 3.582031-8 8-8h336c4.417969 0 8 3.582031 8 8zm24-56h-8v-16h8zm0 0"/></g><g transform="matrix(0.0833333358168602 0 0 0.0833333358168602 67.5 67.5)" id="L1_14"><path d="m440 64h-88v16h88c13.253906 0 24 10.746094 24 24v200h-448v-200c0-13.253906 10.746094-24 24-24h88v-16h-88c-22.082031.027344-39.9726562 17.917969-40 40v240c.0273438 22.082031 17.917969 39.972656 40 40h134.9375l-6 48h-8.9375c-8.835938 0-16 7.164062-16 16v16h-16v16h224v-16h-16v-16c0-8.835938-7.164062-16-16-16h-8.9375l-6-48h134.9375c22.082031-.027344 39.972656-17.917969 40-40v-240c-.027344-22.082031-17.917969-39.972656-40-40zm-120 400h-160v-16h160zm-25.0625-32h-109.875l6-48h97.875zm145.0625-64h-400c-13.253906 0-24-10.746094-24-24v-24h448v24c0 13.253906-10.746094 24-24 24zm0 0"/><path d="m424 336h16v16h-16zm0 0"/><path d="m157.320312 71.257812c-4.5625 7.71875-8.003906 16.050782-10.222656 24.742188h-19.097656c-4.417969 0-8 3.582031-8 8v32c0 4.417969 3.582031 8 8 8h19.097656c2.21875 8.691406 5.660156 17.023438 10.222656 24.742188l-13.488281 13.480468c-3.125 3.125-3.125 8.1875 0 11.3125l22.632813 22.632813c3.125 3.125 8.1875 3.125 11.3125 0l13.480468-13.488281c7.71875 4.5625 16.050782 8.003906 24.742188 10.222656v19.097656c0 4.417969 3.582031 8 8 8h32c4.417969 0 8-3.582031 8-8v-19.097656c8.691406-2.21875 17.023438-5.660156 24.742188-10.222656l13.480468 13.488281c3.125 3.125 8.1875 3.125 11.3125 0l22.632813-22.632813c3.125-3.125 3.125-8.1875 0-11.3125l-13.488281-13.480468c4.5625-7.71875 8.003906-16.050782 10.222656-24.742188h19.097656c4.417969 0 8-3.582031 8-8v-32c0-4.417969-3.582031-8-8-8h-19.097656c-2.21875-8.691406-5.660156-17.023438-10.222656-24.742188l13.488281-13.480468c3.125-3.125 3.125-8.1875 0-11.3125l-22.632813-22.632813c-3.125-3.125-8.1875-3.125-11.3125 0l-13.480468 13.488281c-7.71875-4.5625-16.050782-8.003906-24.742188-10.222656v-19.097656c0-4.417969-3.582031-8-8-8h-32c-4.417969 0-8 3.582031-8 8v19.097656c-8.691406 2.21875-17.023438 5.660156-24.742188 10.222656l-13.480468-13.488281c-3.125-3.125-8.1875-3.125-11.3125 0l-22.632813 22.632813c-3.125 3.125-3.125 8.1875 0 11.3125zm15.847657-6.769531-12.367188-12.367187 11.320313-11.320313 12.367187 12.359375c2.726563 2.730469 7.011719 3.121094 10.191407.9375 9.238281-6.371094 19.726562-10.707031 30.769531-12.714844 3.792969-.695312 6.550781-4.003906 6.550781-7.863281v-17.519531h16v17.519531c-.003906 3.863281 2.753906 7.171875 6.550781 7.871094 11.042969 2.007813 21.53125 6.34375 30.769531 12.714844 3.179688 2.183593 7.464844 1.792969 10.191407-.9375l12.367187-12.367188 11.320313 11.320313-12.359375 12.367187c-2.730469 2.726563-3.121094 7.011719-.9375 10.191407 6.371094 9.238281 10.707031 19.726562 12.714844 30.769531.695312 3.792969 4.003906 6.550781 7.863281 6.550781h17.519531v16h-17.519531c-3.863281-.003906-7.171875 2.753906-7.871094 6.550781-2.007813 11.042969-6.34375 21.53125-12.714844 30.769531-2.183593 3.179688-1.792969 7.464844.9375 10.191407l12.367188 12.367187-11.320313 11.320313-12.367187-12.359375c-2.726563-2.730469-7.011719-3.121094-10.191407-.9375-9.238281 6.371094-19.726562 10.707031-30.769531 12.714844-3.792969.695312-6.550781 4.003906-6.550781 7.863281v17.519531h-16v-17.519531c.003906-3.863281-2.753906-7.171875-6.550781-7.871094-11.042969-2.007813-21.53125-6.34375-30.769531-12.714844-3.179688-2.183593-7.464844-1.792969-10.191407.9375l-12.367187 12.367188-11.320313-11.320313 12.359375-12.367187c2.730469-2.726563 3.121094-7.011719.9375-10.191407-6.371094-9.238281-10.707031-19.726562-12.714844-30.769531-.695312-3.792969-4.003906-6.550781-7.863281-6.550781h-17.519531v-16h17.519531c3.863281.003906 7.171875-2.753906 7.871094-6.550781 2.007813-11.042969 6.34375-21.53125 12.714844-30.769531 2.183593-3.179688 1.792969-7.464844-.9375-10.191407zm0 0"/><path d="m240 176c30.929688 0 56-25.070312 56-56s-25.070312-56-56-56-56 25.070312-56 56c.035156 30.914062 25.085938 55.964844 56 56zm0-96c22.089844 0 40 17.910156 40 40s-17.910156 40-40 40-40-17.910156-40-40c.027344-22.082031 17.917969-39.972656 40-40zm0 0"/><path d="m104 272c13.253906 0 24-10.746094 24-24s-10.746094-24-24-24-24 10.746094-24 24 10.746094 24 24 24zm0-32c4.417969 0 8 3.582031 8 8s-3.582031 8-8 8-8-3.582031-8-8 3.582031-8 8-8zm0 0"/><path d="m320 248c0 13.253906 10.746094 24 24 24s24-10.746094 24-24-10.746094-24-24-24-24 10.746094-24 24zm32 0c0 4.417969-3.582031 8-8 8s-8-3.582031-8-8 3.582031-8 8-8 8 3.582031 8 8zm0 0"/><path d="m376 160c-13.253906 0-24 10.746094-24 24s10.746094 24 24 24 24-10.746094 24-24-10.746094-24-24-24zm0 32c-4.417969 0-8-3.582031-8-8s3.582031-8 8-8 8 3.582031 8 8-3.582031 8-8 8zm0 0"/><path d="m48 224h16v48h-16zm0 0"/><path d="m144 224h16v48h-16zm0 0"/><path d="m48 160h16v48h-16zm0 0"/><path d="m80 160h16v48h-16zm0 0"/><path d="m384 224h16v48h-16zm0 0"/><path d="m416 224h16v48h-16zm0 0"/><path d="m416 160h16v48h-16zm0 0"/></g></defs><g fi:class="KUsePattern"><pattern id="pattern_L1_5" width="350" height="350" patternUnits="userSpaceOnUse"><use xlink:href="#L1_5" x="-350" y="-350"/><use xlink:href="#L1_5" x="0" y="-350"/><use xlink:href="#L1_5" x="350" y="-350"/><use xlink:href="#L1_5" x="-350" y="0"/><use xlink:href="#L1_5" x="0" y="0"/><use xlink:href="#L1_5" x="350" y="0"/><use xlink:href="#L1_5" x="-350" y="350"/><use xlink:href="#L1_5" x="0" y="350"/><use xlink:href="#L1_5" x="350" y="350"/></pattern><rect x="0" y="0" width="100%" height="100%" fill="url(#pattern_L1_5)"/></g><g fi:class="KUsePattern"><pattern id="pattern_L1_6" width="350" height="350" patternUnits="userSpaceOnUse"><use xlink:href="#L1_6" x="-350" y="-350"/><use xlink:href="#L1_6" x="0" y="-350"/><use xlink:href="#L1_6" x="350" y="-350"/><use xlink:href="#L1_6" x="-350" y="0"/><use xlink:href="#L1_6" x="0" y="0"/><use xlink:href="#L1_6" x="350" y="0"/><use xlink:href="#L1_6" x="-350" y="350"/><use xlink:href="#L1_6" x="0" y="350"/><use xlink:href="#L1_6" x="350" y="350"/></pattern><rect x="0" y="0" width="100%" height="100%" fill="url(#pattern_L1_6)"/></g><g fi:class="KUsePattern"><pattern id="pattern_L1_7" width="350" height="350" patternUnits="userSpaceOnUse"><use xlink:href="#L1_7" x="-350" y="-350"/><use xlink:href="#L1_7" x="0" y="-350"/><use xlink:href="#L1_7" x="350" y="-350"/><use xlink:href="#L1_7" x="-350" y="0"/><use xlink:href="#L1_7" x="0" y="0"/><use xlink:href="#L1_7" x="350" y="0"/><use xlink:href="#L1_7" x="-350" y="350"/><use xlink:href="#L1_7" x="0" y="350"/><use xlink:href="#L1_7" x="350" y="350"/></pattern><rect x="0" y="0" width="100%" height="100%" fill="url(#pattern_L1_7)"/></g><g fi:class="KUsePattern"><pattern id="pattern_L1_8" width="350" height="350" patternUnits="userSpaceOnUse"><use xlink:href="#L1_8" x="-350" y="-350"/><use xlink:href="#L1_8" x="0" y="-350"/><use xlink:href="#L1_8" x="350" y="-350"/><use xlink:href="#L1_8" x="-350" y="0"/><use xlink:href="#L1_8" x="0" y="0"/><use xlink:href="#L1_8" x="350" y="0"/><use xlink:href="#L1_8" x="-350" y="350"/><use xlink:href="#L1_8" x="0" y="350"/><use xlink:href="#L1_8" x="350" y="350"/></pattern><rect x="0" y="0" width="100%" height="100%" fill="url(#pattern_L1_8)"/></g><g fi:class="KUsePattern"><pattern id="pattern_L1_9" width="350" height="350" patternUnits="userSpaceOnUse"><use xlink:href="#L1_9" x="-350" y="-350"/><use xlink:href="#L1_9" x="0" y="-350"/><use xlink:href="#L1_9" x="350" y="-350"/><use xlink:href="#L1_9" x="-350" y="0"/><use xlink:href="#L1_9" x="0" y="0"/><use xlink:href="#L1_9" x="350" y="0"/><use xlink:href="#L1_9" x="-350" y="350"/><use xlink:href="#L1_9" x="0" y="350"/><use xlink:href="#L1_9" x="350" y="350"/></pattern><rect x="0" y="0" width="100%" height="100%" fill="url(#pattern_L1_9)"/></g><g fi:class="KUsePattern"><pattern id="pattern_L1_10" width="350" height="350" patternUnits="userSpaceOnUse"><use xlink:href="#L1_10" x="-350" y="-350"/><use xlink:href="#L1_10" x="0" y="-350"/><use xlink:href="#L1_10" x="350" y="-350"/><use xlink:href="#L1_10" x="-350" y="0"/><use xlink:href="#L1_10" x="0" y="0"/><use xlink:href="#L1_10" x="350" y="0"/><use xlink:href="#L1_10" x="-350" y="350"/><use xlink:href="#L1_10" x="0" y="350"/><use xlink:href="#L1_10" x="350" y="350"/></pattern><rect x="0" y="0" width="100%" height="100%" fill="url(#pattern_L1_10)"/></g><g fi:class="KUsePattern"><pattern id="pattern_L1_11" width="350" height="350" patternUnits="userSpaceOnUse"><use xlink:href="#L1_11" x="-350" y="-350"/><use xlink:href="#L1_11" x="0" y="-350"/><use xlink:href="#L1_11" x="350" y="-350"/><use xlink:href="#L1_11" x="-350" y="0"/><use xlink:href="#L1_11" x="0" y="0"/><use xlink:href="#L1_11" x="350" y="0"/><use xlink:href="#L1_11" x="-350" y="350"/><use xlink:href="#L1_11" x="0" y="350"/><use xlink:href="#L1_11" x="350" y="350"/></pattern><rect x="0" y="0" width="100%" height="100%" fill="url(#pattern_L1_11)"/></g><g fi:class="KUsePattern"><pattern id="pattern_L1_12" width="350" height="350" patternUnits="userSpaceOnUse"><use xlink:href="#L1_12" x="-350" y="-350"/><use xlink:href="#L1_12" x="0" y="-350"/><use xlink:href="#L1_12" x="350" y="-350"/><use xlink:href="#L1_12" x="-350" y="0"/><use xlink:href="#L1_12" x="0" y="0"/><use xlink:href="#L1_12" x="350" y="0"/><use xlink:href="#L1_12" x="-350" y="350"/><use xlink:href="#L1_12" x="0" y="350"/><use xlink:href="#L1_12" x="350" y="350"/></pattern><rect x="0" y="0" width="100%" height="100%" fill="url(#pattern_L1_12)"/></g><g fi:class="KUsePattern"><pattern id="pattern_L1_13" width="350" height="350" patternUnits="userSpaceOnUse"><use xlink:href="#L1_13" x="-350" y="-350"/><use xlink:href="#L1_13" x="0" y="-350"/><use xlink:href="#L1_13" x="350" y="-350"/><use xlink:href="#L1_13" x="-350" y="0"/><use xlink:href="#L1_13" x="0" y="0"/><use xlink:href="#L1_13" x="350" y="0"/><use xlink:href="#L1_13" x="-350" y="350"/><use xlink:href="#L1_13" x="0" y="350"/><use xlink:href="#L1_13" x="350" y="350"/></pattern><rect x="0" y="0" width="100%" height="100%" fill="url(#pattern_L1_13)"/></g><g fi:class="KUsePattern"><pattern id="pattern_L1_14" width="350" height="350" patternUnits="userSpaceOnUse"><use xlink:href="#L1_14" x="-350" y="-350"/><use xlink:href="#L1_14" x="0" y="-350"/><use xlink:href="#L1_14" x="350" y="-350"/><use xlink:href="#L1_14" x="-350" y="0"/><use xlink:href="#L1_14" x="0" y="0"/><use xlink:href="#L1_14" x="350" y="0"/><use xlink:href="#L1_14" x="-350" y="350"/><use xlink:href="#L1_14" x="0" y="350"/><use xlink:href="#L1_14" x="350" y="350"/></pattern><rect x="0" y="0" width="100%" height="100%" fill="url(#pattern_L1_14)"/></g></svg>